<svg width="274" height="357" viewBox="0 0 274 357" fill="none" xmlns="http://www.w3.org/2000/svg">
<mask id="mask0_145_707" style="mask-type:alpha" maskUnits="userSpaceOnUse" x="-61" y="33" width="301" height="301">
<path d="M50.8889 328.601C130.909 350.042 213.159 302.554 234.601 222.535C256.042 142.515 208.555 60.2641 128.535 38.8229C48.5147 17.3816 -33.7359 64.869 -55.1771 144.889C-76.6184 224.909 -29.131 307.159 50.8889 328.601Z" fill="#D9D9D9"/>
</mask>
<g mask="url(#mask0_145_707)">
<path d="M67.1373 92.201C69.0102 92.7028 70.9344 91.5915 71.4361 89.719C71.9379 87.8465 70.8271 85.922 68.9542 85.4202C67.0813 84.9183 65.1571 86.0296 64.6553 87.9021C64.1536 89.7746 65.2643 91.6991 67.1373 92.201Z" fill="black" fill-opacity="0.15"/>
<path d="M8.64417 310.5C10.5171 311.002 12.4412 309.891 12.943 308.018C13.4446 306.146 12.334 304.221 10.4611 303.719C8.58815 303.218 6.66381 304.329 6.16222 306.201C5.66037 308.074 6.77124 309.998 8.64417 310.5Z" fill="black" fill-opacity="0.15"/>
<path d="M184.014 123.518C185.887 124.02 187.811 122.909 188.313 121.036C188.815 119.164 187.704 117.239 185.831 116.737C183.958 116.235 182.034 117.347 181.532 119.219C181.031 121.092 182.141 123.016 184.014 123.518Z" fill="black" fill-opacity="0.15"/>
<path d="M96.2985 100.015C98.1705 100.516 100.096 99.4052 100.597 97.5328C101.099 95.6602 99.9874 93.7355 98.1154 93.2339C96.2425 92.732 94.3183 93.8433 93.8166 95.7158C93.3149 97.5883 94.4256 99.5128 96.2985 100.015Z" fill="black" fill-opacity="0.15"/>
<path d="M37.8055 318.314C39.6774 318.815 41.6025 317.705 42.1043 315.832C42.6059 313.96 41.4944 312.035 39.6224 311.533C37.7495 311.031 35.8251 312.143 35.3235 314.015C34.8217 315.888 35.9325 317.812 37.8055 318.314Z" fill="black" fill-opacity="0.15"/>
<path d="M213.176 131.332C215.048 131.833 216.973 130.722 217.474 128.85C217.976 126.977 216.864 125.053 214.993 124.551C213.12 124.049 211.195 125.16 210.694 127.033C210.192 128.905 211.303 130.83 213.176 131.332Z" fill="black" fill-opacity="0.15"/>
<path d="M8.57316 76.5088C10.4456 77.0106 12.3703 75.8993 12.872 74.0269C13.3738 72.1543 12.2625 70.2298 10.3901 69.728C8.51762 69.2263 6.59296 70.3374 6.09121 72.21C5.58949 74.0824 6.70071 76.0071 8.57316 76.5088Z" fill="black" fill-opacity="0.15"/>
<path d="M125.45 107.826C127.323 108.328 129.247 107.216 129.749 105.344C130.251 103.471 129.14 101.547 127.267 101.045C125.394 100.543 123.47 101.654 122.968 103.527C122.467 105.399 123.577 107.324 125.45 107.826Z" fill="black" fill-opacity="0.15"/>
<path d="M66.9571 326.125C68.83 326.627 70.7541 325.516 71.256 323.643C71.7575 321.771 70.6469 319.846 68.774 319.344C66.9011 318.842 64.9767 319.954 64.4751 321.826C63.9733 323.699 65.0842 325.623 66.9571 326.125Z" fill="black" fill-opacity="0.15"/>
<path d="M242.327 139.143C244.2 139.645 246.124 138.533 246.626 136.661C247.128 134.789 246.017 132.864 244.144 132.362C242.271 131.86 240.347 132.972 239.845 134.844C239.344 136.717 240.454 138.641 242.327 139.143Z" fill="black" fill-opacity="0.15"/>
<path d="M37.7345 84.3226C39.6069 84.8243 41.5316 83.7131 42.0333 81.8406C42.5351 79.9681 41.4238 78.0435 39.5514 77.5418C37.6789 77.04 35.7543 78.1512 35.2525 80.0237C34.7508 81.8961 35.862 83.8208 37.7345 84.3226Z" fill="black" fill-opacity="0.15"/>
<path d="M154.612 115.64C156.484 116.142 158.409 115.03 158.91 113.158C159.412 111.285 158.301 109.361 156.428 108.859C154.556 108.357 152.631 109.468 152.13 111.341C151.628 113.213 152.74 115.138 154.612 115.64Z" fill="black" fill-opacity="0.15"/>
<path d="M96.1184 333.939C97.9913 334.441 99.9154 333.33 100.417 331.457C100.919 329.585 99.8083 327.66 97.9353 327.158C96.0634 326.656 94.1381 327.768 93.6365 329.64C93.1346 331.513 94.2465 333.437 96.1184 333.939Z" fill="black" fill-opacity="0.15"/>
<path d="M59.7272 119.855C61.6002 120.357 63.5244 119.246 64.0261 117.373C64.5278 115.501 63.4171 113.576 61.5441 113.075C59.6712 112.573 57.747 113.684 57.2453 115.557C56.7436 117.429 57.8543 119.354 59.7272 119.855Z" fill="black" fill-opacity="0.15"/>
<path d="M176.604 151.173C178.477 151.674 180.401 150.563 180.903 148.691C181.405 146.818 180.294 144.894 178.421 144.392C176.548 143.89 174.624 145.001 174.122 146.874C173.621 148.746 174.731 150.671 176.604 151.173Z" fill="black" fill-opacity="0.15"/>
<path d="M88.8885 127.669C90.7605 128.171 92.6857 127.06 93.1874 125.187C93.6892 123.315 92.5774 121.39 90.7055 120.888C88.8325 120.387 86.9084 121.498 86.4066 123.37C85.9049 125.243 87.0156 127.167 88.8885 127.669Z" fill="black" fill-opacity="0.15"/>
<path d="M205.766 158.986C207.638 159.488 209.563 158.377 210.064 156.504C210.566 154.632 209.454 152.707 207.582 152.205C205.71 151.704 203.785 152.815 203.284 154.687C202.782 156.56 203.893 158.484 205.766 158.986Z" fill="black" fill-opacity="0.15"/>
<path d="M1.16318 104.163C3.03563 104.665 4.96031 103.554 5.46204 101.681C5.96378 99.8088 4.85254 97.8842 2.98009 97.3825C1.10765 96.8807 -0.817018 97.9919 -1.31876 99.8644C-1.82048 101.737 -0.709265 103.662 1.16318 104.163Z" fill="black" fill-opacity="0.15"/>
<path d="M118.04 135.48C119.913 135.982 121.837 134.871 122.339 132.998C122.841 131.126 121.73 129.201 119.857 128.7C117.984 128.198 116.06 129.309 115.558 131.182C115.056 133.054 116.167 134.979 118.04 135.48Z" fill="black" fill-opacity="0.15"/>
<path d="M234.917 166.797C236.79 167.299 238.714 166.188 239.216 164.315C239.718 162.443 238.607 160.518 236.734 160.017C234.861 159.515 232.937 160.626 232.435 162.499C231.934 164.371 233.044 166.296 234.917 166.797Z" fill="black" fill-opacity="0.15"/>
<path d="M30.3245 111.977C32.1969 112.479 34.1216 111.367 34.6233 109.495C35.1251 107.622 34.0138 105.698 32.1414 105.196C30.2689 104.694 28.3443 105.806 27.8425 107.678C27.3408 109.551 28.452 111.475 30.3245 111.977Z" fill="black" fill-opacity="0.15"/>
<path d="M147.201 143.294C149.074 143.796 150.999 142.685 151.5 140.812C152.002 138.94 150.891 137.015 149.018 136.513C147.146 136.012 145.221 137.123 144.72 138.995C144.218 140.868 145.33 142.793 147.201 143.294Z" fill="black" fill-opacity="0.15"/>
<path d="M52.3199 147.5C54.1928 148.002 56.1171 146.89 56.6187 145.018C57.1206 143.145 56.0097 141.221 54.1368 140.719C52.2639 140.218 50.3398 141.328 49.8379 143.201C49.3364 145.073 50.447 146.998 52.3199 147.5Z" fill="black" fill-opacity="0.15"/>
<path d="M169.197 178.817C171.07 179.319 172.994 178.207 173.496 176.335C173.998 174.462 172.887 172.538 171.014 172.036C169.141 171.535 167.217 172.645 166.715 174.518C166.213 176.39 167.324 178.315 169.197 178.817Z" fill="black" fill-opacity="0.15"/>
<path d="M81.4812 155.314C83.3532 155.815 85.2785 154.704 85.7801 152.832C86.2819 150.959 85.1701 149.035 83.2981 148.533C81.4252 148.031 79.5011 149.142 78.9993 151.015C78.4977 152.887 79.6083 154.812 81.4812 155.314Z" fill="black" fill-opacity="0.15"/>
<path d="M198.358 186.631C200.23 187.133 202.155 186.021 202.657 184.149C203.159 182.276 202.047 180.352 200.175 179.85C198.302 179.348 196.378 180.459 195.876 182.332C195.375 184.204 196.485 186.129 198.358 186.631Z" fill="black" fill-opacity="0.15"/>
<path d="M110.633 163.125C112.506 163.627 114.43 162.515 114.932 160.643C115.434 158.77 114.323 156.846 112.45 156.344C110.577 155.842 108.653 156.953 108.151 158.826C107.649 160.698 108.76 162.623 110.633 163.125Z" fill="black" fill-opacity="0.15"/>
<path d="M227.51 194.442C229.383 194.944 231.307 193.832 231.809 191.96C232.311 190.087 231.2 188.163 229.327 187.661C227.454 187.16 225.53 188.27 225.028 190.143C224.526 192.015 225.637 193.94 227.51 194.442Z" fill="black" fill-opacity="0.15"/>
<path d="M22.9171 139.622C24.7895 140.123 26.7144 139.012 27.2159 137.14C27.7178 135.267 26.6064 133.343 24.734 132.841C22.8616 132.339 20.937 133.45 20.4351 135.323C19.9336 137.195 21.0446 139.12 22.9171 139.622Z" fill="black" fill-opacity="0.15"/>
<path d="M139.794 170.939C141.667 171.441 143.591 170.329 144.093 168.457C144.595 166.584 143.484 164.66 141.611 164.158C139.739 163.656 137.814 164.767 137.312 166.64C136.811 168.512 137.922 170.437 139.794 170.939Z" fill="black" fill-opacity="0.15"/>
<path d="M44.9099 175.155C46.7828 175.656 48.7069 174.546 49.2087 172.673C49.7103 170.801 48.5997 168.876 46.7268 168.374C44.8539 167.872 42.9295 168.984 42.4279 170.856C41.9261 172.729 43.037 174.653 44.9099 175.155Z" fill="black" fill-opacity="0.15"/>
<path d="M161.787 206.472C163.66 206.974 165.584 205.863 166.086 203.99C166.587 202.118 165.477 200.193 163.604 199.691C161.731 199.189 159.807 200.301 159.305 202.173C158.803 204.046 159.914 205.97 161.787 206.472Z" fill="black" fill-opacity="0.15"/>
<path d="M74.0712 182.968C75.9431 183.47 77.8682 182.359 78.37 180.486C78.8716 178.614 77.76 176.689 75.8881 176.188C74.0151 175.686 72.0908 176.797 71.5892 178.669C71.0874 180.542 72.1982 182.466 74.0712 182.968Z" fill="black" fill-opacity="0.15"/>
<path d="M190.948 214.285C192.82 214.787 194.745 213.676 195.247 211.804C195.749 209.932 194.637 208.006 192.765 207.505C190.892 207.003 188.968 208.115 188.466 209.987C187.964 211.86 189.075 213.784 190.948 214.285Z" fill="black" fill-opacity="0.15"/>
<path d="M103.223 190.779C105.096 191.281 107.02 190.17 107.522 188.298C108.023 186.426 106.913 184.501 105.04 183.999C103.167 183.497 101.242 184.609 100.741 186.481C100.239 188.354 101.35 190.278 103.223 190.779Z" fill="black" fill-opacity="0.15"/>
<path d="M220.1 222.097C221.973 222.598 223.897 221.488 224.399 219.615C224.9 217.743 223.79 215.818 221.917 215.316C220.044 214.814 218.12 215.926 217.618 217.798C217.116 219.671 218.227 221.595 220.1 222.097Z" fill="black" fill-opacity="0.15"/>
<path d="M15.5071 167.276C17.3796 167.778 19.3041 166.667 19.806 164.794C20.3076 162.922 19.1965 160.997 17.324 160.495C15.4516 159.994 13.5268 161.105 13.0252 162.977C12.5233 164.85 13.6347 166.774 15.5071 167.276Z" fill="black" fill-opacity="0.15"/>
<path d="M132.384 198.593C134.257 199.095 136.181 197.984 136.683 196.111C137.185 194.239 136.074 192.314 134.201 191.812C132.329 191.311 130.404 192.422 129.902 194.294C129.4 196.167 130.512 198.092 132.384 198.593Z" fill="black" fill-opacity="0.15"/>
<path d="M37.4844 202.867C39.3573 203.369 41.2814 202.258 41.7832 200.385C42.2851 198.512 41.1742 196.588 39.3013 196.086C37.4284 195.584 35.5043 196.695 35.0024 198.568C34.5006 200.441 35.6114 202.365 37.4844 202.867Z" fill="black" fill-opacity="0.15"/>
<path d="M154.361 234.184C156.234 234.686 158.158 233.575 158.66 231.702C159.162 229.829 158.051 227.905 156.178 227.403C154.305 226.901 152.381 228.012 151.879 229.885C151.378 231.758 152.488 233.682 154.361 234.184Z" fill="black" fill-opacity="0.15"/>
<path d="M66.6457 210.681C68.5177 211.182 70.4427 210.072 70.9446 208.199C71.4464 206.326 70.3346 204.401 68.4626 203.9C66.5897 203.398 64.6656 204.509 64.1638 206.382C63.6619 208.255 64.7728 210.179 66.6457 210.681Z" fill="black" fill-opacity="0.15"/>
<path d="M183.523 241.998C185.395 242.499 187.32 241.389 187.822 239.516C188.323 237.643 187.212 235.719 185.34 235.217C183.467 234.715 181.543 235.826 181.041 237.699C180.539 239.572 181.65 241.496 183.523 241.998Z" fill="black" fill-opacity="0.15"/>
<path d="M95.7973 218.492C97.6702 218.994 99.5943 217.883 100.096 216.01C100.598 214.137 99.4872 212.213 97.6142 211.711C95.7413 211.209 93.8172 212.32 93.3154 214.193C92.8135 216.066 93.9244 217.99 95.7973 218.492Z" fill="black" fill-opacity="0.15"/>
<path d="M212.674 249.809C214.547 250.311 216.471 249.2 216.973 247.327C217.475 245.454 216.364 243.53 214.491 243.028C212.618 242.526 210.694 243.637 210.192 245.51C209.691 247.383 210.801 249.307 212.674 249.809Z" fill="black" fill-opacity="0.15"/>
<path d="M8.08158 194.989C9.95403 195.49 11.8786 194.38 12.3804 192.507C12.8823 190.634 11.7709 188.709 9.89849 188.208C8.02604 187.706 6.10148 188.817 5.59963 190.69C5.09778 192.563 6.20913 194.487 8.08158 194.989Z" fill="black" fill-opacity="0.15"/>
<path d="M124.959 226.306C126.832 226.808 128.756 225.697 129.257 223.824C129.759 221.951 128.648 220.027 126.776 219.525C124.904 219.023 122.979 220.134 122.477 222.007C121.975 223.88 123.087 225.804 124.959 226.306Z" fill="black" fill-opacity="0.15"/>
<path d="M30.0744 230.521C31.9473 231.023 33.8714 229.912 34.3732 228.039C34.8751 226.167 33.7642 224.242 31.8913 223.741C30.0184 223.239 28.0943 224.35 27.5924 226.223C27.0906 228.095 28.2014 230.02 30.0744 230.521Z" fill="black" fill-opacity="0.15"/>
<path d="M146.951 261.839C148.824 262.34 150.748 261.23 151.25 259.357C151.752 257.484 150.641 255.56 148.768 255.058C146.895 254.556 144.971 255.667 144.469 257.54C143.968 259.413 145.078 261.337 146.951 261.839Z" fill="black" fill-opacity="0.15"/>
<path d="M59.2357 238.335C61.1077 238.837 63.0327 237.726 63.5346 235.853C64.0364 233.98 62.9246 232.056 61.0526 231.554C59.1797 231.053 57.2556 232.163 56.7537 234.036C56.2519 235.909 57.3628 237.833 59.2357 238.335Z" fill="black" fill-opacity="0.15"/>
<path d="M176.113 269.652C177.985 270.154 179.91 269.043 180.412 267.17C180.913 265.297 179.802 263.373 177.93 262.871C176.057 262.37 174.133 263.48 173.631 265.353C173.129 267.226 174.24 269.15 176.113 269.652Z" fill="black" fill-opacity="0.15"/>
<path d="M88.3873 246.146C90.2603 246.648 92.1843 245.537 92.6862 243.664C93.188 241.792 92.0772 239.867 90.2043 239.366C88.3313 238.864 86.4072 239.975 85.9054 241.848C85.4035 243.72 86.5144 245.645 88.3873 246.146Z" fill="black" fill-opacity="0.15"/>
<path d="M205.264 277.463C207.137 277.965 209.061 276.854 209.563 274.981C210.065 273.109 208.954 271.184 207.081 270.683C205.208 270.181 203.284 271.292 202.782 273.165C202.281 275.037 203.391 276.962 205.264 277.463Z" fill="black" fill-opacity="0.15"/>
<path d="M0.671609 222.643C2.54406 223.145 4.46861 222.034 4.97046 220.161C5.47231 218.288 4.36096 216.364 2.48852 215.862C0.616068 215.36 -1.30849 216.471 -1.81034 218.344C-2.31219 220.217 -1.20084 222.141 0.671609 222.643Z" fill="black" fill-opacity="0.15"/>
<path d="M117.549 253.96C119.422 254.462 121.346 253.351 121.848 251.478C122.349 249.605 121.238 247.681 119.366 247.179C117.494 246.678 115.569 247.788 115.067 249.661C114.565 251.534 115.677 253.459 117.549 253.96Z" fill="black" fill-opacity="0.15"/>
<path d="M81.1575 39.8766C83.0304 40.3785 84.9546 39.2671 85.4563 37.3947C85.9581 35.5222 84.8473 33.5977 82.9744 33.0958C81.1015 32.594 79.1773 33.7053 78.6755 35.5778C78.1738 37.4502 79.2845 39.3748 81.1575 39.8766Z" fill="black" fill-opacity="0.15"/>
<path d="M22.6644 258.176C24.5373 258.678 26.4614 257.567 26.9633 255.694C27.4651 253.821 26.3542 251.897 24.4813 251.395C22.6084 250.893 20.6843 252.004 20.1825 253.877C19.6806 255.75 20.7915 257.674 22.6644 258.176Z" fill="black" fill-opacity="0.15"/>
<path d="M198.035 71.1938C199.907 71.6956 201.832 70.5843 202.333 68.7118C202.835 66.8394 201.724 64.9148 199.851 64.413C197.979 63.9111 196.054 65.0224 195.553 66.8949C195.051 68.7674 196.162 70.6919 198.035 71.1938Z" fill="black" fill-opacity="0.15"/>
<path d="M139.541 289.493C141.414 289.995 143.338 288.884 143.84 287.011C144.342 285.138 143.231 283.214 141.358 282.712C139.485 282.21 137.561 283.321 137.059 285.194C136.558 287.067 137.669 288.991 139.541 289.493Z" fill="black" fill-opacity="0.15"/>
<path d="M110.319 47.6905C112.191 48.1921 114.116 47.081 114.618 45.2085C115.119 43.3361 114.008 41.4113 112.136 40.9097C110.263 40.4078 108.339 41.5192 107.837 43.3916C107.335 45.2641 108.446 47.1886 110.319 47.6905Z" fill="black" fill-opacity="0.15"/>
<path d="M51.8257 265.99C53.6977 266.491 55.6227 265.381 56.1246 263.508C56.6264 261.635 55.5146 259.71 53.6426 259.209C51.7697 258.707 49.8456 259.818 49.3438 261.691C48.8419 263.564 49.9528 265.488 51.8257 265.99Z" fill="black" fill-opacity="0.15"/>
<path d="M227.196 79.0075C229.068 79.5091 230.993 78.398 231.495 76.5255C231.996 74.6531 230.885 72.7283 229.013 72.2267C227.14 71.7248 225.216 72.8362 224.714 74.7086C224.212 76.5811 225.323 78.5056 227.196 79.0075Z" fill="black" fill-opacity="0.15"/>
<path d="M168.703 297.307C170.575 297.808 172.5 296.698 173.002 294.825C173.503 292.952 172.392 291.028 170.52 290.526C168.647 290.024 166.723 291.135 166.221 293.008C165.719 294.881 166.83 296.805 168.703 297.307Z" fill="black" fill-opacity="0.15"/>
<path d="M139.47 55.5016C141.343 56.0035 143.268 54.8921 143.769 53.0197C144.271 51.1472 143.16 49.2227 141.287 48.7208C139.414 48.219 137.49 49.3303 136.989 51.2028C136.487 53.0752 137.598 54.9998 139.47 55.5016Z" fill="black" fill-opacity="0.15"/>
<path d="M80.9774 273.801C82.8503 274.303 84.7744 273.192 85.2762 271.319C85.7781 269.446 84.6672 267.522 82.7943 267.02C80.9213 266.518 78.9973 267.629 78.4954 269.502C77.9936 271.375 79.1044 273.299 80.9774 273.801Z" fill="black" fill-opacity="0.15"/>
<path d="M197.854 305.118C199.727 305.62 201.651 304.509 202.153 302.636C202.655 300.763 201.544 298.839 199.671 298.337C197.798 297.835 195.874 298.946 195.372 300.819C194.871 302.692 195.981 304.616 197.854 305.118Z" fill="black" fill-opacity="0.15"/>
<path d="M168.632 63.3153C170.505 63.8172 172.429 62.7058 172.931 60.8334C173.432 58.9609 172.322 57.0364 170.449 56.5346C168.577 56.033 166.651 57.144 166.15 59.0165C165.648 60.8889 166.76 62.8138 168.632 63.3153Z" fill="black" fill-opacity="0.15"/>
<path d="M110.139 281.615C112.012 282.116 113.936 281.006 114.437 279.133C114.939 277.26 113.828 275.336 111.956 274.834C110.084 274.332 108.159 275.443 107.657 277.316C107.155 279.189 108.267 281.113 110.139 281.615Z" fill="black" fill-opacity="0.15"/>
<path d="M73.7501 67.5215C75.6231 68.0234 77.5473 66.912 78.049 65.0396C78.5507 63.1671 77.44 61.2426 75.567 60.7407C73.6941 60.2389 71.7699 61.3502 71.2682 63.2227C70.7665 65.0951 71.8772 67.0197 73.7501 67.5215Z" fill="black" fill-opacity="0.15"/>
<path d="M15.257 285.821C17.1299 286.323 19.054 285.212 19.5558 283.339C20.0577 281.466 18.9468 279.542 17.0739 279.04C15.201 278.538 13.2769 279.649 12.775 281.522C12.2732 283.395 13.3841 285.319 15.257 285.821Z" fill="black" fill-opacity="0.15"/>
<path d="M190.627 98.8385C192.5 99.3404 194.424 98.229 194.926 96.3566C195.428 94.4842 194.317 92.5596 192.444 92.0577C190.571 91.5559 188.647 92.6672 188.145 94.5397C187.643 96.4121 188.754 98.3367 190.627 98.8385Z" fill="black" fill-opacity="0.15"/>
<path d="M132.134 317.138C134.007 317.64 135.931 316.529 136.433 314.656C136.935 312.783 135.824 310.859 133.951 310.357C132.078 309.855 130.154 310.966 129.652 312.839C129.15 314.712 130.261 316.636 132.134 317.138Z" fill="black" fill-opacity="0.15"/>
<path d="M102.911 75.3352C104.783 75.8368 106.709 74.7258 107.21 72.8533C107.712 70.9809 106.6 69.056 104.728 68.5544C102.855 68.0526 100.931 69.1639 100.429 71.0364C99.9277 72.9088 101.038 74.8334 102.911 75.3352Z" fill="black" fill-opacity="0.15"/>
<path d="M44.4183 293.634C46.2903 294.136 48.2153 293.025 48.7172 291.153C49.219 289.28 48.1072 287.355 46.2352 286.854C44.3623 286.352 42.4382 287.463 41.9364 289.336C41.4345 291.209 42.5454 293.133 44.4183 293.634Z" fill="black" fill-opacity="0.15"/>
<path d="M219.788 106.652C221.66 107.154 223.586 106.043 224.087 104.17C224.589 102.298 223.477 100.373 221.605 99.8716C219.732 99.3697 217.808 100.481 217.306 102.354C216.805 104.226 217.915 106.151 219.788 106.652Z" fill="black" fill-opacity="0.15"/>
<path d="M161.295 324.952C163.167 325.453 165.092 324.343 165.594 322.47C166.096 320.597 164.984 318.672 163.112 318.171C161.239 317.669 159.315 318.78 158.813 320.653C158.311 322.526 159.422 324.45 161.295 324.952Z" fill="black" fill-opacity="0.15"/>
<path d="M15.186 51.8293C17.0585 52.331 18.9831 51.2198 19.4849 49.3473C19.9866 47.4749 18.8754 45.5502 17.0029 45.0485C15.1305 44.5467 13.2058 45.658 12.7041 47.5304C12.2023 49.4029 13.3136 51.3275 15.186 51.8293Z" fill="black" fill-opacity="0.15"/>
<path d="M132.063 83.1464C133.936 83.6483 135.86 82.5369 136.362 80.6645C136.864 78.792 135.753 76.8675 133.88 76.3656C132.007 75.8638 130.083 76.9751 129.581 78.8476C129.079 80.72 130.19 82.6446 132.063 83.1464Z" fill="black" fill-opacity="0.15"/>
<path d="M73.57 301.446C75.4429 301.947 77.367 300.837 77.8688 298.964C78.3707 297.091 77.2598 295.167 75.3869 294.665C73.5139 294.163 71.5899 295.274 71.088 297.147C70.5862 299.02 71.697 300.944 73.57 301.446Z" fill="black" fill-opacity="0.15"/>
<path d="M190.447 332.763C192.32 333.265 194.244 332.154 194.746 330.281C195.248 328.408 194.137 326.484 192.264 325.982C190.391 325.48 188.467 326.591 187.965 328.464C187.463 330.337 188.574 332.261 190.447 332.763Z" fill="black" fill-opacity="0.15"/>
<path d="M44.3473 59.643C46.2198 60.1447 48.1445 59.0335 48.6462 57.161C49.1479 55.2886 48.0367 53.3639 46.1642 52.8622C44.2918 52.3605 42.3671 53.4717 41.8654 55.3441C41.3637 57.2166 42.4749 59.1413 44.3473 59.643Z" fill="black" fill-opacity="0.15"/>
<path d="M161.224 90.9601C163.097 91.462 165.021 90.3506 165.523 88.4782C166.025 86.6057 164.914 84.6812 163.041 84.1793C161.169 83.6777 159.244 84.7888 158.742 86.6613C158.241 88.5337 159.352 90.4585 161.224 90.9601Z" fill="black" fill-opacity="0.15"/>
<path d="M102.731 309.259C104.604 309.761 106.528 308.65 107.03 306.777C107.532 304.904 106.421 302.98 104.548 302.479C102.676 301.977 100.751 303.088 100.249 304.96C99.7474 306.833 100.859 308.758 102.731 309.259Z" fill="black" fill-opacity="0.15"/>
</g>
</svg>
