<svg width="20" height="20" viewBox="0 0 20 20" fill="none" xmlns="http://www.w3.org/2000/svg">
<path d="M8.33329 5.83335C8.33312 6.99222 8.67813 8.12488 9.32431 9.08686C9.9705 10.0489 10.8886 10.7966 11.9614 11.2347C13.0343 11.6727 14.2134 11.7814 15.3482 11.5466C16.483 11.3119 17.5223 10.7444 18.3333 9.91669V10C18.3333 14.6025 14.6025 18.3334 9.99996 18.3334C5.39746 18.3334 1.66663 14.6025 1.66663 10C1.66663 5.39752 5.39746 1.66669 9.99996 1.66669H10.0833C9.52832 2.20929 9.08758 2.85749 8.78703 3.57309C8.48647 4.28869 8.3322 5.0572 8.33329 5.83335ZM3.33329 10C3.33269 11.4875 3.82957 12.9325 4.74487 14.105C5.66017 15.2775 6.94132 16.1103 8.38447 16.4707C9.82762 16.8312 11.3499 16.6986 12.709 16.0942C14.0681 15.4897 15.1861 14.4481 15.885 13.135C14.6412 13.4281 13.3431 13.3984 12.114 13.049C10.8848 12.6995 9.76538 12.0418 8.8618 11.1382C7.95822 10.2346 7.3005 9.11514 6.95103 7.886C6.60156 6.65687 6.57193 5.35882 6.86496 4.11502C5.79794 4.68347 4.90561 5.53141 4.28351 6.56806C3.6614 7.60471 3.33294 8.79103 3.33329 10Z" fill="#8A8F93"/>
</svg>
