<svg width="20" height="20" viewBox="0 0 20 20" fill="none" xmlns="http://www.w3.org/2000/svg">
<path d="M10.1667 15.1667C8.84058 15.1667 7.56882 14.6399 6.63113 13.7022C5.69345 12.7645 5.16667 11.4927 5.16667 10.1667C5.16667 8.84058 5.69345 7.56882 6.63113 6.63113C7.56882 5.69345 8.84058 5.16667 10.1667 5.16667C11.4927 5.16667 12.7645 5.69345 13.7022 6.63113C14.6399 7.56882 15.1667 8.84058 15.1667 10.1667C15.1667 11.4927 14.6399 12.7645 13.7022 13.7022C12.7645 14.6399 11.4927 15.1667 10.1667 15.1667ZM10.1667 13.5C11.0507 13.5 11.8986 13.1488 12.5237 12.5237C13.1488 11.8986 13.5 11.0507 13.5 10.1667C13.5 9.28261 13.1488 8.43477 12.5237 7.80964C11.8986 7.18452 11.0507 6.83333 10.1667 6.83333C9.28261 6.83333 8.43477 7.18452 7.80964 7.80964C7.18452 8.43477 6.83333 9.28261 6.83333 10.1667C6.83333 11.0507 7.18452 11.8986 7.80964 12.5237C8.43477 13.1488 9.28261 13.5 10.1667 13.5ZM9.33333 1H11V3.5H9.33333V1ZM9.33333 16.8333H11V19.3333H9.33333V16.8333ZM3.09583 4.27417L4.27417 3.09583L6.04167 4.86333L4.86333 6.04167L3.09583 4.275V4.27417ZM14.2917 15.47L15.47 14.2917L17.2375 16.0592L16.0592 17.2375L14.2917 15.47ZM16.0592 3.095L17.2375 4.27417L15.47 6.04167L14.2917 4.86333L16.0592 3.09583V3.095ZM4.86333 14.2917L6.04167 15.47L4.27417 17.2375L3.09583 16.0592L4.86333 14.2917ZM19.3333 9.33333V11H16.8333V9.33333H19.3333ZM3.5 9.33333V11H1V9.33333H3.5Z" fill="#8A8F93"/>
</svg>
