<svg width="307" height="307" viewBox="0 0 307 307" fill="none" xmlns="http://www.w3.org/2000/svg">
<mask id="mask0_145_244" style="mask-type:alpha" maskUnits="userSpaceOnUse" x="28" y="28" width="251" height="251">
<path d="M120.741 273.834C187.424 291.702 255.966 252.129 273.834 185.445C291.701 118.762 252.129 50.2201 185.445 32.3524C118.762 14.4847 50.2199 54.0575 32.3522 120.741C14.4845 187.424 54.0573 255.966 120.741 273.834Z" fill="#D9D9D9"/>
</mask>
<g mask="url(#mask0_145_244)">
<path d="M134.281 76.8341C135.841 77.2523 137.445 76.3262 137.863 74.7658C138.281 73.2054 137.356 71.6017 135.795 71.1835C134.234 70.7653 132.631 71.6913 132.212 73.2518C131.794 74.8121 132.72 76.4159 134.281 76.8341Z" fill="white" fill-opacity="0.15"/>
<path d="M85.5366 258.75C87.0974 259.168 88.7007 258.243 89.119 256.682C89.5369 255.122 88.6115 253.518 87.0507 253.099C85.4899 252.681 83.8863 253.608 83.4683 255.168C83.0501 256.728 83.9758 258.332 85.5366 258.75Z" fill="white" fill-opacity="0.15"/>
<path d="M231.678 102.932C233.239 103.35 234.842 102.424 235.261 100.863C235.679 99.303 234.753 97.6993 233.192 97.2811C231.631 96.8629 230.028 97.7889 229.61 99.3494C229.192 100.91 230.117 102.514 231.678 102.932Z" fill="white" fill-opacity="0.15"/>
<path d="M61.1843 57.248C62.7447 57.6661 64.3486 56.7401 64.7667 55.1797C65.1848 53.6193 64.2588 52.0154 62.6984 51.5973C61.138 51.1792 59.5341 52.1052 59.116 53.6656C58.6979 55.226 59.6239 56.8299 61.1843 57.248Z" fill="white" fill-opacity="0.15"/>
<path d="M158.582 83.3456C160.142 83.7636 161.746 82.8377 162.164 81.2773C162.582 79.7169 161.656 78.1129 160.096 77.6949C158.535 77.2767 156.932 78.2028 156.513 79.7632C156.095 81.3236 157.021 82.9274 158.582 83.3456Z" fill="white" fill-opacity="0.15"/>
<path d="M109.838 265.262C111.398 265.68 113.002 264.754 113.42 263.193C113.838 261.633 112.912 260.029 111.352 259.611C109.791 259.193 108.187 260.119 107.769 261.679C107.351 263.24 108.277 264.843 109.838 265.262Z" fill="white" fill-opacity="0.15"/>
<path d="M255.979 109.443C257.539 109.861 259.144 108.935 259.562 107.375C259.98 105.814 259.054 104.211 257.494 103.793C255.933 103.374 254.329 104.3 253.911 105.861C253.493 107.421 254.419 109.025 255.979 109.443Z" fill="white" fill-opacity="0.15"/>
<path d="M85.4773 63.7573C87.0376 64.1754 88.6415 63.2494 89.0596 61.689C89.4778 60.1286 88.5517 58.5247 86.9914 58.1066C85.431 57.6885 83.8271 58.6145 83.409 60.1749C82.9909 61.7353 83.9169 63.3392 85.4773 63.7573Z" fill="white" fill-opacity="0.15"/>
<path d="M36.7331 245.673C38.2935 246.091 39.8973 245.166 40.3155 243.605C40.7335 242.045 39.8076 240.441 38.2472 240.023C36.6868 239.604 35.0828 240.531 34.6648 242.091C34.2466 243.652 35.1727 245.255 36.7331 245.673Z" fill="white" fill-opacity="0.15"/>
<path d="M182.875 89.8549C184.436 90.2731 186.039 89.347 186.457 87.7866C186.875 86.2262 185.95 84.6224 184.389 84.2042C182.828 83.786 181.225 84.7121 180.807 86.2725C180.389 87.8329 181.314 89.4367 182.875 89.8549Z" fill="white" fill-opacity="0.15"/>
<path d="M134.131 271.771C135.691 272.189 137.295 271.263 137.713 269.703C138.131 268.143 137.205 266.538 135.645 266.12C134.084 265.702 132.48 266.628 132.062 268.188C131.644 269.749 132.57 271.353 134.131 271.771Z" fill="white" fill-opacity="0.15"/>
<path d="M280.272 115.952C281.833 116.371 283.437 115.445 283.855 113.884C284.273 112.324 283.347 110.72 281.787 110.302C280.226 109.884 278.622 110.81 278.204 112.37C277.786 113.93 278.712 115.534 280.272 115.952Z" fill="white" fill-opacity="0.15"/>
<path d="M109.779 70.2688C111.339 70.6869 112.943 69.7609 113.361 68.2005C113.779 66.64 112.853 65.0362 111.293 64.6181C109.732 64.2 108.128 65.1259 107.71 66.6864C107.292 68.2468 108.218 69.8507 109.779 70.2688Z" fill="white" fill-opacity="0.15"/>
<path d="M61.0341 252.185C62.5945 252.603 64.1983 251.677 64.6165 250.116C65.0345 248.556 64.1086 246.952 62.5482 246.534C60.9879 246.116 59.3838 247.042 58.9659 248.602C58.5476 250.163 59.4738 251.767 61.0341 252.185Z" fill="white" fill-opacity="0.15"/>
<path d="M207.176 96.3664C208.737 96.7846 210.34 95.8584 210.758 94.2981C211.176 92.7376 210.251 91.1339 208.69 90.7157C207.13 90.2977 205.526 91.2235 205.108 92.784C204.69 94.3443 205.616 95.9484 207.176 96.3664Z" fill="white" fill-opacity="0.15"/>
<path d="M158.432 278.282C159.993 278.701 161.596 277.775 162.014 276.214C162.432 274.654 161.507 273.05 159.946 272.632C158.386 272.214 156.782 273.14 156.364 274.7C155.945 276.261 156.872 277.864 158.432 278.282Z" fill="white" fill-opacity="0.15"/>
<path d="M128.106 99.8795C129.666 100.298 131.27 99.3716 131.688 97.8112C132.106 96.2508 131.181 94.6471 129.62 94.2289C128.059 93.8107 126.456 94.7367 126.037 96.2972C125.619 97.8575 126.545 99.4613 128.106 99.8795Z" fill="white" fill-opacity="0.15"/>
<path d="M225.503 125.977C227.064 126.395 228.668 125.469 229.086 123.909C229.504 122.348 228.578 120.745 227.017 120.326C225.457 119.908 223.853 120.834 223.435 122.395C223.017 123.955 223.943 125.559 225.503 125.977Z" fill="white" fill-opacity="0.15"/>
<path d="M55.0092 80.2934C56.5696 80.7115 58.1735 79.7855 58.5916 78.2251C59.0097 76.6647 58.0837 75.0608 56.5233 74.6427C54.963 74.2246 53.3591 75.1506 52.941 76.711C52.5229 78.2714 53.4489 79.8753 55.0092 80.2934Z" fill="white" fill-opacity="0.15"/>
<path d="M152.407 106.391C153.967 106.809 155.571 105.883 155.989 104.323C156.407 102.762 155.481 101.158 153.921 100.74C152.36 100.322 150.757 101.248 150.339 102.809C149.921 104.369 150.846 105.973 152.407 106.391Z" fill="white" fill-opacity="0.15"/>
<path d="M249.804 132.489C251.364 132.907 252.969 131.981 253.387 130.42C253.805 128.86 252.878 127.256 251.318 126.838C249.758 126.42 248.154 127.346 247.736 128.906C247.318 130.467 248.244 132.07 249.804 132.489Z" fill="white" fill-opacity="0.15"/>
<path d="M79.3025 86.8027C80.8628 87.2208 82.4667 86.2948 82.8848 84.7344C83.303 83.1739 82.3769 81.5701 80.8165 81.152C79.2562 80.7339 77.6523 81.6599 77.2342 83.2203C76.8161 84.7807 77.7421 86.3846 79.3025 86.8027Z" fill="white" fill-opacity="0.15"/>
<path d="M176.7 112.9C178.261 113.318 179.864 112.392 180.282 110.832C180.7 109.272 179.775 107.668 178.214 107.25C176.653 106.831 175.05 107.757 174.632 109.318C174.214 110.878 175.139 112.482 176.7 112.9Z" fill="white" fill-opacity="0.15"/>
<path d="M274.097 138.998C275.658 139.416 277.262 138.49 277.68 136.93C278.098 135.369 277.172 133.765 275.611 133.347C274.051 132.929 272.447 133.855 272.029 135.415C271.611 136.976 272.537 138.58 274.097 138.998Z" fill="white" fill-opacity="0.15"/>
<path d="M103.603 93.3141C105.164 93.7322 106.768 92.8062 107.186 91.2459C107.604 89.6854 106.678 88.0816 105.118 87.6635C103.557 87.2454 101.953 88.1713 101.535 89.7318C101.117 91.2921 102.043 92.896 103.603 93.3141Z" fill="white" fill-opacity="0.15"/>
<path d="M201.001 119.412C202.562 119.83 204.165 118.904 204.583 117.343C205.001 115.783 204.076 114.179 202.515 113.761C200.955 113.343 199.351 114.269 198.933 115.829C198.515 117.39 199.441 118.994 201.001 119.412Z" fill="white" fill-opacity="0.15"/>
<path d="M121.933 122.917C123.494 123.335 125.097 122.408 125.515 120.848C125.934 119.288 125.008 117.684 123.447 117.266C121.886 116.848 120.283 117.774 119.865 119.334C119.447 120.894 120.372 122.499 121.933 122.917Z" fill="white" fill-opacity="0.15"/>
<path d="M219.331 149.014C220.891 149.433 222.495 148.506 222.913 146.946C223.331 145.385 222.405 143.782 220.845 143.364C219.284 142.945 217.68 143.871 217.262 145.432C216.844 146.992 217.77 148.596 219.331 149.014Z" fill="white" fill-opacity="0.15"/>
<path d="M48.8366 103.331C50.397 103.749 52.001 102.822 52.419 101.262C52.8372 99.7016 51.9111 98.0981 50.3507 97.68C48.7904 97.2619 47.1866 98.1875 46.7683 99.7483C46.3504 101.308 47.2763 102.913 48.8366 103.331Z" fill="white" fill-opacity="0.15"/>
<path d="M146.234 129.428C147.794 129.846 149.398 128.92 149.816 127.36C150.235 125.799 149.308 124.196 147.748 123.778C146.187 123.359 144.584 124.285 144.166 125.846C143.748 127.406 144.673 129.01 146.234 129.428Z" fill="white" fill-opacity="0.15"/>
<path d="M243.632 155.526C245.192 155.944 246.796 155.017 247.214 153.458C247.632 151.897 246.706 150.293 245.146 149.875C243.585 149.457 241.981 150.383 241.563 151.943C241.145 153.503 242.071 155.108 243.632 155.526Z" fill="white" fill-opacity="0.15"/>
<path d="M73.1296 109.84C74.69 110.258 76.294 109.332 76.712 107.772C77.1302 106.211 76.2041 104.607 74.6437 104.189C73.0833 103.771 71.4795 104.697 71.0613 106.258C70.6433 107.818 71.5692 109.422 73.1296 109.84Z" fill="white" fill-opacity="0.15"/>
<path d="M170.527 135.938C172.088 136.356 173.691 135.429 174.109 133.869C174.528 132.308 173.602 130.705 172.041 130.287C170.48 129.869 168.877 130.794 168.459 132.355C168.041 133.915 168.966 135.519 170.527 135.938Z" fill="white" fill-opacity="0.15"/>
<path d="M267.925 162.035C269.485 162.453 271.089 161.527 271.507 159.967C271.925 158.406 270.999 156.803 269.439 156.384C267.878 155.966 266.274 156.892 265.856 158.453C265.438 160.013 266.364 161.617 267.925 162.035Z" fill="white" fill-opacity="0.15"/>
<path d="M97.4306 116.351C98.991 116.769 100.595 115.843 101.013 114.283C101.431 112.722 100.505 111.119 98.9447 110.701C97.3843 110.283 95.7805 111.208 95.3623 112.769C94.9443 114.329 95.8703 115.933 97.4306 116.351Z" fill="white" fill-opacity="0.15"/>
<path d="M194.828 142.449C196.389 142.867 197.992 141.941 198.41 140.381C198.829 138.82 197.903 137.217 196.342 136.798C194.782 136.38 193.178 137.306 192.76 138.867C192.342 140.427 193.268 142.031 194.828 142.449Z" fill="white" fill-opacity="0.15"/>
<path d="M115.758 145.962C117.319 146.38 118.922 145.455 119.34 143.894C119.758 142.334 118.833 140.73 117.272 140.311C115.711 139.893 114.108 140.82 113.69 142.38C113.272 143.941 114.197 145.544 115.758 145.962Z" fill="white" fill-opacity="0.15"/>
<path d="M213.155 172.06C214.716 172.478 216.32 171.552 216.738 169.991C217.156 168.431 216.23 166.827 214.67 166.409C213.109 165.991 211.505 166.917 211.087 168.477C210.669 170.038 211.595 171.642 213.155 172.06Z" fill="white" fill-opacity="0.15"/>
<path d="M42.6616 126.376C44.222 126.794 45.8258 125.869 46.244 124.308C46.662 122.748 45.736 121.143 44.1757 120.725C42.6153 120.307 41.0113 121.234 40.5933 122.794C40.1751 124.354 41.1012 125.958 42.6616 126.376Z" fill="white" fill-opacity="0.15"/>
<path d="M140.059 152.474C141.619 152.892 143.223 151.966 143.641 150.405C144.059 148.845 143.133 147.241 141.573 146.823C140.012 146.405 138.409 147.331 137.991 148.891C137.573 150.452 138.498 152.055 140.059 152.474Z" fill="white" fill-opacity="0.15"/>
<path d="M237.456 178.571C239.016 178.989 240.621 178.064 241.039 176.503C241.457 174.943 240.531 173.339 238.971 172.921C237.41 172.502 235.806 173.429 235.388 174.989C234.97 176.55 235.896 178.153 237.456 178.571Z" fill="white" fill-opacity="0.15"/>
<path d="M66.9546 132.885C68.5149 133.303 70.1187 132.378 70.5369 130.817C70.9549 129.257 70.029 127.653 68.4686 127.235C66.9083 126.817 65.3043 127.743 64.8863 129.303C64.4681 130.864 65.3942 132.467 66.9546 132.885Z" fill="white" fill-opacity="0.15"/>
<path d="M164.352 158.983C165.913 159.401 167.516 158.475 167.934 156.915C168.352 155.355 167.427 153.75 165.866 153.332C164.305 152.914 162.702 153.841 162.284 155.401C161.866 156.961 162.791 158.565 164.352 158.983Z" fill="white" fill-opacity="0.15"/>
<path d="M261.75 185.08C263.311 185.499 264.914 184.573 265.332 183.012C265.75 181.452 264.825 179.848 263.264 179.43C261.703 179.012 260.099 179.938 259.681 181.498C259.263 183.059 260.189 184.662 261.75 185.08Z" fill="white" fill-opacity="0.15"/>
<path d="M91.2556 139.397C92.816 139.815 94.4197 138.889 94.838 137.328C95.256 135.769 94.33 134.164 92.7697 133.746C91.2093 133.328 89.6053 134.254 89.1873 135.814C88.7691 137.375 89.6952 138.979 91.2556 139.397Z" fill="white" fill-opacity="0.15"/>
<path d="M188.653 165.494C190.214 165.913 191.817 164.987 192.236 163.426C192.654 161.866 191.728 160.262 190.167 159.844C188.607 159.426 187.003 160.352 186.585 161.912C186.167 163.473 187.093 165.076 188.653 165.494Z" fill="white" fill-opacity="0.15"/>
<path d="M109.57 169.056C111.131 169.474 112.734 168.548 113.152 166.988C113.571 165.427 112.645 163.823 111.084 163.405C109.523 162.987 107.92 163.913 107.502 165.473C107.084 167.034 108.009 168.638 109.57 169.056Z" fill="white" fill-opacity="0.15"/>
<path d="M206.967 195.153C208.528 195.572 210.132 194.646 210.55 193.085C210.968 191.524 210.042 189.921 208.482 189.503C206.921 189.085 205.317 190.01 204.899 191.571C204.481 193.132 205.407 194.735 206.967 195.153Z" fill="white" fill-opacity="0.15"/>
<path d="M36.4736 149.47C38.034 149.888 39.6378 148.962 40.056 147.401C40.4742 145.841 39.5481 144.237 37.9877 143.819C36.4273 143.401 34.8235 144.327 34.4053 145.887C33.9871 147.448 34.9132 149.052 36.4736 149.47Z" fill="white" fill-opacity="0.15"/>
<path d="M133.871 175.567C135.431 175.985 137.035 175.06 137.453 173.499C137.872 171.938 136.945 170.335 135.385 169.917C133.824 169.498 132.221 170.424 131.803 171.985C131.385 173.546 132.31 175.149 133.871 175.567Z" fill="white" fill-opacity="0.15"/>
<path d="M231.269 201.665C232.829 202.083 234.433 201.157 234.851 199.597C235.269 198.036 234.343 196.432 232.783 196.014C231.222 195.596 229.619 196.522 229.2 198.082C228.782 199.643 229.708 201.247 231.269 201.665Z" fill="white" fill-opacity="0.15"/>
<path d="M60.7666 155.979C62.3269 156.397 63.9307 155.471 64.3489 153.911C64.7672 152.35 63.841 150.746 62.2807 150.328C60.7203 149.91 59.1165 150.836 58.6983 152.397C58.2801 153.957 59.2062 155.561 60.7666 155.979Z" fill="white" fill-opacity="0.15"/>
<path d="M158.164 182.077C159.725 182.495 161.328 181.569 161.747 180.008C162.165 178.448 161.239 176.844 159.678 176.426C158.118 176.008 156.514 176.933 156.096 178.494C155.678 180.055 156.604 181.658 158.164 182.077Z" fill="white" fill-opacity="0.15"/>
<path d="M255.562 208.174C257.123 208.592 258.726 207.667 259.144 206.106C259.562 204.545 258.637 202.942 257.076 202.523C255.515 202.105 253.912 203.031 253.493 204.592C253.075 206.153 254.001 207.756 255.562 208.174Z" fill="white" fill-opacity="0.15"/>
<path d="M85.0678 162.49C86.6282 162.909 88.232 161.983 88.6502 160.422C89.0684 158.861 88.1423 157.258 86.5819 156.84C85.0216 156.422 83.4178 157.347 82.9995 158.908C82.5813 160.469 83.5075 162.072 85.0678 162.49Z" fill="white" fill-opacity="0.15"/>
<path d="M182.465 188.588C184.026 189.006 185.629 188.081 186.048 186.52C186.466 184.959 185.54 183.356 183.979 182.937C182.419 182.519 180.815 183.445 180.397 185.006C179.979 186.566 180.905 188.17 182.465 188.588Z" fill="white" fill-opacity="0.15"/>
<path d="M103.395 192.101C104.956 192.519 106.559 191.594 106.977 190.033C107.396 188.472 106.47 186.869 104.909 186.451C103.348 186.032 101.745 186.958 101.327 188.519C100.908 190.08 101.834 191.683 103.395 192.101Z" fill="white" fill-opacity="0.15"/>
<path d="M200.793 218.199C202.353 218.617 203.957 217.691 204.375 216.13C204.793 214.57 203.868 212.966 202.307 212.548C200.746 212.13 199.143 213.056 198.724 214.616C198.306 216.177 199.232 217.781 200.793 218.199Z" fill="white" fill-opacity="0.15"/>
<path d="M30.2985 172.515C31.8589 172.933 33.4627 172.008 33.8809 170.447C34.2991 168.886 33.373 167.283 31.8126 166.864C30.2523 166.446 28.6485 167.372 28.2303 168.933C27.8121 170.493 28.7382 172.097 30.2985 172.515Z" fill="white" fill-opacity="0.15"/>
<path d="M127.696 198.613C129.256 199.031 130.86 198.105 131.279 196.544C131.697 194.984 130.77 193.38 129.21 192.962C127.65 192.544 126.046 193.47 125.628 195.03C125.21 196.591 126.135 198.194 127.696 198.613Z" fill="white" fill-opacity="0.15"/>
<path d="M225.094 224.71C226.654 225.128 228.258 224.203 228.676 222.642C229.094 221.081 228.168 219.478 226.608 219.06C225.047 218.641 223.444 219.567 223.025 221.128C222.607 222.689 223.533 224.292 225.094 224.71Z" fill="white" fill-opacity="0.15"/>
<path d="M54.5918 179.024C56.1521 179.442 57.7559 178.517 58.1741 176.956C58.5923 175.395 57.6662 173.792 56.1059 173.374C54.5455 172.956 52.9417 173.881 52.5235 175.442C52.1053 177.003 53.0314 178.606 54.5918 179.024Z" fill="white" fill-opacity="0.15"/>
<path d="M151.989 205.122C153.55 205.54 155.153 204.614 155.572 203.054C155.99 201.493 155.064 199.89 153.503 199.471C151.943 199.053 150.339 199.979 149.921 201.54C149.503 203.1 150.428 204.704 151.989 205.122Z" fill="white" fill-opacity="0.15"/>
<path d="M249.387 231.22C250.947 231.638 252.551 230.712 252.969 229.151C253.387 227.59 252.462 225.987 250.901 225.569C249.34 225.151 247.737 226.076 247.318 227.637C246.9 229.198 247.826 230.801 249.387 231.22Z" fill="white" fill-opacity="0.15"/>
<path d="M78.8928 185.536C80.4532 185.954 82.057 185.028 82.4752 183.468C82.8934 181.907 81.9673 180.303 80.4069 179.885C78.8465 179.467 77.2427 180.393 76.8245 181.953C76.4063 183.514 77.3324 185.118 78.8928 185.536Z" fill="white" fill-opacity="0.15"/>
<path d="M176.29 211.633C177.851 212.052 179.454 211.126 179.873 209.565C180.291 208.004 179.365 206.401 177.804 205.983C176.244 205.565 174.64 206.49 174.222 208.051C173.804 209.612 174.73 211.215 176.29 211.633Z" fill="white" fill-opacity="0.15"/>
<path d="M145.964 33.2306C147.525 33.6488 149.129 32.7226 149.547 31.1623C149.965 29.6019 149.039 27.9981 147.478 27.5799C145.918 27.1617 144.314 28.0878 143.896 29.6482C143.478 31.2086 144.404 32.8123 145.964 33.2306Z" fill="white" fill-opacity="0.15"/>
<path d="M97.2202 215.147C98.781 215.565 100.384 214.639 100.803 213.078C101.221 211.518 100.295 209.914 98.7343 209.496C97.1735 209.078 95.5701 210.003 95.1519 211.564C94.7337 213.125 95.6594 214.728 97.2202 215.147Z" fill="white" fill-opacity="0.15"/>
<path d="M243.362 59.3281C244.923 59.7464 246.526 58.8202 246.944 57.2599C247.362 55.6995 246.437 54.0957 244.876 53.6775C243.315 53.2593 241.712 54.1854 241.293 55.7458C240.875 57.3061 241.801 58.9099 243.362 59.3281Z" fill="white" fill-opacity="0.15"/>
<path d="M194.618 241.244C196.178 241.662 197.782 240.737 198.2 239.176C198.618 237.615 197.693 236.012 196.132 235.594C194.571 235.175 192.968 236.101 192.549 237.662C192.131 239.223 193.057 240.826 194.618 241.244Z" fill="white" fill-opacity="0.15"/>
<path d="M24.1237 195.56C25.6841 195.979 27.2879 195.053 27.7061 193.492C28.1243 191.931 27.1982 190.328 25.6378 189.91C24.0775 189.492 22.4737 190.417 22.0555 191.978C21.6372 193.539 22.5634 195.142 24.1237 195.56Z" fill="white" fill-opacity="0.15"/>
<path d="M170.265 39.742C171.825 40.16 173.43 39.2341 173.848 37.6737C174.266 36.1133 173.339 34.5093 171.779 34.0914C170.219 33.6731 168.615 34.5993 168.197 36.1596C167.779 37.72 168.705 39.3238 170.265 39.742Z" fill="white" fill-opacity="0.15"/>
<path d="M121.521 221.658C123.081 222.076 124.685 221.151 125.104 219.59C125.522 218.029 124.595 216.425 123.035 216.007C121.475 215.589 119.871 216.515 119.453 218.076C119.035 219.636 119.96 221.24 121.521 221.658Z" fill="white" fill-opacity="0.15"/>
<path d="M267.663 65.8396C269.223 66.2576 270.827 65.3317 271.245 63.7713C271.663 62.2109 270.737 60.6069 269.177 60.1889C267.616 59.7707 266.013 60.6968 265.595 62.2572C265.176 63.8176 266.102 65.4214 267.663 65.8396Z" fill="white" fill-opacity="0.15"/>
<path d="M218.919 247.756C220.479 248.174 222.083 247.248 222.501 245.687C222.919 244.127 221.993 242.523 220.433 242.105C218.872 241.687 217.269 242.612 216.85 244.173C216.432 245.734 217.358 247.337 218.919 247.756Z" fill="white" fill-opacity="0.15"/>
<path d="M48.4167 202.07C49.9771 202.488 51.5809 201.562 51.9991 200.001C52.4173 198.441 51.4912 196.837 49.9308 196.419C48.3704 196.001 46.7666 196.927 46.3484 198.487C45.9302 200.048 46.8563 201.652 48.4167 202.07Z" fill="white" fill-opacity="0.15"/>
<path d="M194.558 46.2513C196.119 46.6695 197.723 45.7434 198.141 44.183C198.559 42.6226 197.633 41.0189 196.072 40.6007C194.512 40.1825 192.908 41.1086 192.49 42.6689C192.072 44.2293 192.998 45.8331 194.558 46.2513Z" fill="white" fill-opacity="0.15"/>
<path d="M145.814 228.167C147.375 228.586 148.978 227.66 149.397 226.099C149.815 224.538 148.889 222.935 147.328 222.517C145.767 222.098 144.164 223.024 143.746 224.585C143.328 226.146 144.253 227.749 145.814 228.167Z" fill="white" fill-opacity="0.15"/>
<path d="M243.212 254.265C244.772 254.683 246.376 253.757 246.794 252.197C247.212 250.636 246.287 249.032 244.726 248.614C243.165 248.196 241.562 249.122 241.143 250.683C240.725 252.243 241.651 253.847 243.212 254.265Z" fill="white" fill-opacity="0.15"/>
<path d="M72.7177 208.581C74.2781 208.999 75.8819 208.074 76.3001 206.513C76.7183 204.952 75.7922 203.349 74.2318 202.931C72.6715 202.512 71.0677 203.438 70.6494 204.999C70.2312 206.56 71.1574 208.163 72.7177 208.581Z" fill="white" fill-opacity="0.15"/>
<path d="M218.86 52.7628C220.42 53.181 222.024 52.2549 222.442 50.6945C222.86 49.1341 221.934 47.5303 220.374 47.1121C218.814 46.6941 217.209 47.62 216.791 49.1804C216.373 50.7408 217.3 52.3448 218.86 52.7628Z" fill="white" fill-opacity="0.15"/>
<path d="M170.115 234.679C171.676 235.097 173.279 234.171 173.698 232.611C174.116 231.05 173.19 229.446 171.629 229.028C170.069 228.61 168.465 229.536 168.047 231.096C167.629 232.657 168.555 234.261 170.115 234.679Z" fill="white" fill-opacity="0.15"/>
<path d="M139.791 56.2679C141.352 56.6861 142.956 55.76 143.374 54.1996C143.792 52.6392 142.866 51.0354 141.306 50.6172C139.745 50.199 138.141 51.1251 137.723 52.6855C137.305 54.2459 138.231 55.8497 139.791 56.2679Z" fill="white" fill-opacity="0.15"/>
<path d="M91.0473 238.184C92.6081 238.602 94.2115 237.676 94.6297 236.116C95.0479 234.555 94.1222 232.951 92.5614 232.533C91.0006 232.115 89.3972 233.041 88.979 234.602C88.5608 236.162 89.4866 237.766 91.0473 238.184Z" fill="white" fill-opacity="0.15"/>
<path d="M237.189 82.3655C238.75 82.7837 240.353 81.8576 240.771 80.2972C241.189 78.7368 240.264 77.133 238.703 76.7148C237.142 76.2966 235.539 77.2227 235.121 78.7831C234.703 80.3435 235.628 81.9473 237.189 82.3655Z" fill="white" fill-opacity="0.15"/>
<path d="M188.445 264.282C190.006 264.7 191.609 263.774 192.027 262.213C192.445 260.652 191.52 259.049 189.959 258.631C188.398 258.213 186.795 259.138 186.376 260.699C185.958 262.26 186.884 263.863 188.445 264.282Z" fill="white" fill-opacity="0.15"/>
<path d="M66.695 36.6818C68.2554 37.0999 69.8593 36.1738 70.2774 34.6135C70.6955 33.0531 69.7695 31.4492 68.2091 31.0311C66.6487 30.613 65.0448 31.539 64.6267 33.0994C64.2086 34.6598 65.1347 36.2637 66.695 36.6818Z" fill="white" fill-opacity="0.15"/>
<path d="M164.092 62.7793C165.652 63.1973 167.257 62.2714 167.675 60.7111C168.093 59.1507 167.167 57.5467 165.607 57.1287C164.046 56.7105 162.442 57.6366 162.024 59.197C161.606 60.7573 162.532 62.3611 164.092 62.7793Z" fill="white" fill-opacity="0.15"/>
<path d="M115.348 244.695C116.908 245.113 118.513 244.188 118.931 242.627C119.349 241.066 118.422 239.463 116.862 239.045C115.302 238.626 113.698 239.552 113.28 241.113C112.862 242.674 113.788 244.277 115.348 244.695Z" fill="white" fill-opacity="0.15"/>
<path d="M261.49 88.8769C263.05 89.2949 264.654 88.369 265.073 86.8086C265.491 85.2483 264.564 83.6443 263.004 83.2263C261.444 82.8081 259.84 83.7342 259.422 85.2946C259.004 86.8549 259.929 88.4587 261.49 88.8769Z" fill="white" fill-opacity="0.15"/>
<path d="M212.746 270.793C214.306 271.211 215.91 270.285 216.328 268.725C216.746 267.164 215.82 265.56 214.26 265.142C212.699 264.724 211.096 265.65 210.678 267.211C210.259 268.771 211.185 270.375 212.746 270.793Z" fill="white" fill-opacity="0.15"/>
<path d="M90.988 43.1911C92.5484 43.6092 94.1523 42.6831 94.5704 41.1228C94.9885 39.5624 94.0625 37.9585 92.5021 37.5404C90.9417 37.1223 89.3378 38.0483 88.9197 39.6087C88.5016 41.1691 89.4276 42.773 90.988 43.1911Z" fill="white" fill-opacity="0.15"/>
<path d="M42.2439 225.107C43.8042 225.525 45.408 224.6 45.8262 223.039C46.2444 221.478 45.3183 219.875 43.758 219.456C42.1976 219.038 40.5938 219.964 40.1756 221.525C39.7574 223.085 40.6835 224.689 42.2439 225.107Z" fill="white" fill-opacity="0.15"/>
<path d="M188.386 69.2886C189.946 69.7069 191.55 68.7807 191.968 67.2204C192.386 65.66 191.461 64.0562 189.9 63.638C188.339 63.2198 186.736 64.1459 186.317 65.7063C185.899 67.2666 186.825 68.8704 188.386 69.2886Z" fill="white" fill-opacity="0.15"/>
<path d="M139.641 251.205C141.202 251.623 142.805 250.697 143.224 249.136C143.642 247.576 142.716 245.972 141.155 245.554C139.595 245.136 137.991 246.062 137.573 247.622C137.155 249.183 138.081 250.786 139.641 251.205Z" fill="white" fill-opacity="0.15"/>
<path d="M237.039 277.302C238.6 277.72 240.203 276.795 240.621 275.234C241.039 273.673 240.114 272.07 238.553 271.652C236.992 271.233 235.389 272.159 234.97 273.72C234.552 275.281 235.478 276.884 237.039 277.302Z" fill="white" fill-opacity="0.15"/>
<path d="M115.289 49.7025C116.85 50.1206 118.454 49.1946 118.872 47.6342C119.29 46.0739 118.364 44.4699 116.803 44.0518C115.243 43.6337 113.639 44.5598 113.221 46.1201C112.803 47.6805 113.729 49.2844 115.289 49.7025Z" fill="white" fill-opacity="0.15"/>
<path d="M66.5449 231.619C68.1053 232.037 69.7091 231.111 70.1273 229.55C70.5455 227.99 69.6194 226.386 68.059 225.968C66.4986 225.55 64.8948 226.475 64.4766 228.036C64.0584 229.597 64.9845 231.2 66.5449 231.619Z" fill="white" fill-opacity="0.15"/>
<path d="M212.687 75.8001C214.248 76.2183 215.851 75.2922 216.269 73.7318C216.687 72.1714 215.762 70.5677 214.201 70.1494C212.641 69.7315 211.037 70.6574 210.618 72.2177C210.2 73.7781 211.127 75.3821 212.687 75.8001Z" fill="white" fill-opacity="0.15"/>
<path d="M163.942 257.716C165.503 258.134 167.107 257.209 167.525 255.648C167.943 254.087 167.017 252.484 165.456 252.065C163.896 251.647 162.292 252.573 161.874 254.134C161.456 255.695 162.382 257.298 163.942 257.716Z" fill="white" fill-opacity="0.15"/>
</g>
</svg>
