<svg width="100" height="70" viewBox="0 0 100 70" fill="none" xmlns="http://www.w3.org/2000/svg">
<g clip-path="url(#clip0_145_358)">
<path d="M0 0.980392C5.55422 0.980392 5.55422 9.80392 11.1085 9.80392C16.6627 9.80392 16.6627 0.980392 22.217 0.980392C27.7712 0.980392 27.7712 9.80392 33.3254 9.80392C38.8797 9.80392 38.8797 0.980392 44.434 0.980392C49.9882 0.980392 49.9882 9.80392 55.5422 9.80392C61.0966 9.80392 61.0966 0.980392 66.651 0.980392C72.2049 0.980392 72.2049 9.80392 77.7593 9.80392C83.3137 9.80392 83.3137 0.980392 88.8799 0.980392C94.4456 0.980392 94.4338 9.80392 100 9.80392" stroke="white" stroke-opacity="0.15" stroke-width="1.5" stroke-miterlimit="10"/>
<path d="M0 36.2745C5.55422 36.2745 5.55422 45.098 11.1085 45.098C16.6627 45.098 16.6627 36.2745 22.217 36.2745C27.7712 36.2745 27.7712 45.098 33.3254 45.098C38.8797 45.098 38.8797 36.2745 44.434 36.2745C49.9882 36.2745 49.9882 45.098 55.5422 45.098C61.0966 45.098 61.0966 36.2745 66.651 36.2745C72.2049 36.2745 72.2049 45.098 77.7593 45.098C83.3137 45.098 83.3137 36.2745 88.8799 36.2745C94.4456 36.2745 94.4338 45.098 100 45.098" stroke="white" stroke-opacity="0.15" stroke-width="1.5" stroke-miterlimit="10"/>
<path d="M0 12.7451C5.55755 12.7451 5.55755 21.5686 11.115 21.5686C16.6726 21.5686 16.6726 12.7451 22.2301 12.7451C27.7877 12.7451 27.7876 21.5686 33.3452 21.5686C38.9027 21.5686 38.9027 12.7451 44.4604 12.7451C50.0176 12.7451 50.0176 21.5686 55.5755 21.5686C61.1328 21.5686 61.1328 12.7451 66.6907 12.7451C72.248 12.7451 72.248 21.5686 77.8054 21.5686C83.3632 21.5686 83.351 12.7451 88.873 12.7451C94.3951 12.7451 94.4309 21.5686 100 21.5686" stroke="white" stroke-opacity="0.15" stroke-width="1.5" stroke-miterlimit="10"/>
<path d="M0 59.8039C5.55755 59.8039 5.55755 68.6275 11.115 68.6275C16.6726 68.6275 16.6726 59.8039 22.2301 59.8039C27.7877 59.8039 27.7876 68.6275 33.3452 68.6275C38.9027 68.6275 38.9027 59.8039 44.4604 59.8039C50.0176 59.8039 50.0176 68.6275 55.5755 68.6275C61.1328 68.6275 61.1328 59.8039 66.6907 59.8039C72.248 59.8039 72.248 68.6275 77.8054 68.6275C83.3632 68.6275 83.351 59.8039 88.873 59.8039C94.3951 59.8039 94.4309 68.6275 100 68.6275" stroke="white" stroke-opacity="0.15" stroke-width="1.5" stroke-miterlimit="10"/>
<path d="M0 24.5098C5.55422 24.5098 5.55422 33.3333 11.1085 33.3333C16.6627 33.3333 16.6627 24.5098 22.217 24.5098C27.7712 24.5098 27.7712 33.3333 33.3254 33.3333C38.8797 33.3333 38.8797 24.5098 44.434 24.5098C49.9882 24.5098 49.9882 33.3333 55.5422 33.3333C61.0966 33.3333 61.0966 24.5098 66.651 24.5098C72.2049 24.5098 72.2049 33.3333 77.7593 33.3333C83.3137 33.3333 83.3137 24.5098 88.8799 24.5098C94.4456 24.5098 94.4338 33.3333 100 33.3333" stroke="white" stroke-opacity="0.15" stroke-width="1.5" stroke-miterlimit="10"/>
<path d="M0 48.0392C5.55422 48.0392 5.55422 56.8627 11.1085 56.8627C16.6627 56.8627 16.6627 48.0392 22.217 48.0392C27.7712 48.0392 27.7712 56.8627 33.3254 56.8627C38.8797 56.8627 38.8797 48.0392 44.434 48.0392C49.9882 48.0392 49.9882 56.8627 55.5422 56.8627C61.0966 56.8627 61.0966 48.0392 66.651 48.0392C72.2049 48.0392 72.2049 56.8627 77.7593 56.8627C83.3137 56.8627 83.3137 48.0392 88.8799 48.0392C94.4456 48.0392 94.4338 56.8627 100 56.8627" stroke="white" stroke-opacity="0.15" stroke-width="1.5" stroke-miterlimit="10"/>
</g>
<defs>
<clipPath id="clip0_145_358">
<rect width="100" height="69.6078" fill="white"/>
</clipPath>
</defs>
</svg>
