<svg width="307" height="307" viewBox="0 0 307 307" fill="none" xmlns="http://www.w3.org/2000/svg">
<mask id="mask0_143_123" style="mask-type:alpha" maskUnits="userSpaceOnUse" x="28" y="28" width="251" height="251">
<path d="M120.741 273.834C187.424 291.702 255.966 252.129 273.834 185.445C291.702 118.762 252.129 50.2201 185.445 32.3524C118.762 14.4847 50.2201 54.0575 32.3523 120.741C14.4846 187.424 54.0574 255.966 120.741 273.834Z" fill="#D9D9D9"/>
</mask>
<g mask="url(#mask0_143_123)">
<path d="M134.281 76.8341C135.842 77.2523 137.445 76.3262 137.863 74.7658C138.281 73.2054 137.356 71.6017 135.795 71.1835C134.234 70.7653 132.631 71.6913 132.213 73.2518C131.795 74.8121 132.72 76.4159 134.281 76.8341Z" fill="black" fill-opacity="0.15"/>
<path d="M85.5368 258.75C87.0976 259.168 88.701 258.243 89.1192 256.682C89.5372 255.122 88.6117 253.518 87.0509 253.099C85.4901 252.681 83.8865 253.608 83.4685 255.168C83.0503 256.728 83.976 258.332 85.5368 258.75Z" fill="black" fill-opacity="0.15"/>
<path d="M231.679 102.932C233.239 103.35 234.843 102.424 235.261 100.863C235.679 99.303 234.753 97.6993 233.193 97.2811C231.632 96.8629 230.028 97.7889 229.61 99.3494C229.192 100.91 230.118 102.514 231.679 102.932Z" fill="black" fill-opacity="0.15"/>
<path d="M61.1845 57.248C62.7449 57.6661 64.3488 56.7401 64.7669 55.1797C65.185 53.6193 64.259 52.0154 62.6986 51.5973C61.1383 51.1792 59.5344 52.1052 59.1162 53.6656C58.6981 55.226 59.6242 56.8299 61.1845 57.248Z" fill="black" fill-opacity="0.15"/>
<path d="M158.582 83.3456C160.142 83.7636 161.746 82.8377 162.164 81.2773C162.583 79.7169 161.656 78.1129 160.096 77.6949C158.535 77.2767 156.932 78.2028 156.514 79.7632C156.096 81.3236 157.021 82.9274 158.582 83.3456Z" fill="black" fill-opacity="0.15"/>
<path d="M109.838 265.262C111.398 265.68 113.002 264.754 113.42 263.193C113.838 261.633 112.912 260.029 111.352 259.611C109.791 259.193 108.188 260.119 107.77 261.679C107.351 263.24 108.277 264.843 109.838 265.262Z" fill="black" fill-opacity="0.15"/>
<path d="M255.98 109.443C257.54 109.861 259.144 108.935 259.562 107.375C259.98 105.814 259.054 104.211 257.494 103.793C255.933 103.374 254.329 104.3 253.911 105.861C253.493 107.421 254.419 109.025 255.98 109.443Z" fill="black" fill-opacity="0.15"/>
<path d="M85.4776 63.7573C87.038 64.1754 88.6419 63.2494 89.06 61.689C89.4781 60.1286 88.5521 58.5247 86.9917 58.1066C85.4313 57.6885 83.8275 58.6145 83.4093 60.1749C82.9912 61.7353 83.9173 63.3392 85.4776 63.7573Z" fill="black" fill-opacity="0.15"/>
<path d="M36.7334 245.673C38.2937 246.091 39.8975 245.166 40.3157 243.605C40.7337 242.045 39.8078 240.441 38.2475 240.023C36.6871 239.604 35.0831 240.531 34.6651 242.091C34.2469 243.652 35.173 245.255 36.7334 245.673Z" fill="black" fill-opacity="0.15"/>
<path d="M182.875 89.8549C184.436 90.2731 186.039 89.347 186.457 87.7866C186.876 86.2262 185.95 84.6224 184.389 84.2042C182.828 83.786 181.225 84.7121 180.807 86.2725C180.389 87.8329 181.314 89.4367 182.875 89.8549Z" fill="black" fill-opacity="0.15"/>
<path d="M134.131 271.771C135.692 272.189 137.295 271.263 137.713 269.703C138.131 268.143 137.206 266.538 135.645 266.12C134.084 265.702 132.481 266.628 132.063 268.188C131.644 269.749 132.57 271.353 134.131 271.771Z" fill="black" fill-opacity="0.15"/>
<path d="M280.273 115.952C281.833 116.371 283.437 115.445 283.855 113.884C284.273 112.324 283.348 110.72 281.787 110.302C280.226 109.884 278.623 110.81 278.204 112.37C277.786 113.93 278.712 115.534 280.273 115.952Z" fill="black" fill-opacity="0.15"/>
<path d="M109.779 70.2688C111.339 70.6869 112.943 69.7609 113.361 68.2005C113.779 66.64 112.853 65.0362 111.293 64.6181C109.732 64.2 108.128 65.1259 107.71 66.6864C107.292 68.2468 108.218 69.8507 109.779 70.2688Z" fill="black" fill-opacity="0.15"/>
<path d="M61.0345 252.185C62.5949 252.603 64.1987 251.677 64.6169 250.116C65.0349 248.556 64.109 246.952 62.5486 246.534C60.9882 246.116 59.3842 247.042 58.9662 248.602C58.548 250.163 59.4741 251.767 61.0345 252.185Z" fill="black" fill-opacity="0.15"/>
<path d="M207.176 96.3664C208.737 96.7846 210.341 95.8584 210.759 94.2981C211.177 92.7376 210.251 91.1339 208.69 90.7157C207.13 90.2977 205.526 91.2235 205.108 92.784C204.69 94.3443 205.616 95.9484 207.176 96.3664Z" fill="black" fill-opacity="0.15"/>
<path d="M158.432 278.282C159.993 278.701 161.596 277.775 162.014 276.214C162.432 274.654 161.507 273.05 159.946 272.632C158.386 272.214 156.782 273.14 156.364 274.7C155.945 276.261 156.872 277.864 158.432 278.282Z" fill="black" fill-opacity="0.15"/>
<path d="M128.106 99.8795C129.667 100.298 131.27 99.3716 131.688 97.8112C132.107 96.2508 131.181 94.6471 129.62 94.2289C128.059 93.8107 126.456 94.7367 126.038 96.2972C125.62 97.8575 126.545 99.4613 128.106 99.8795Z" fill="black" fill-opacity="0.15"/>
<path d="M225.503 125.977C227.064 126.395 228.668 125.469 229.086 123.909C229.504 122.348 228.578 120.745 227.018 120.326C225.457 119.908 223.853 120.834 223.435 122.395C223.017 123.955 223.943 125.559 225.503 125.977Z" fill="black" fill-opacity="0.15"/>
<path d="M55.0096 80.2934C56.57 80.7115 58.1739 79.7855 58.592 78.2251C59.0101 76.6647 58.0841 75.0608 56.5237 74.6427C54.9633 74.2246 53.3594 75.1506 52.9413 76.711C52.5232 78.2714 53.4492 79.8753 55.0096 80.2934Z" fill="black" fill-opacity="0.15"/>
<path d="M152.407 106.391C153.967 106.809 155.571 105.883 155.989 104.323C156.408 102.762 155.481 101.158 153.921 100.74C152.36 100.322 150.757 101.248 150.339 102.809C149.921 104.369 150.846 105.973 152.407 106.391Z" fill="black" fill-opacity="0.15"/>
<path d="M249.805 132.489C251.365 132.907 252.969 131.981 253.387 130.42C253.805 128.86 252.879 127.256 251.319 126.838C249.758 126.42 248.154 127.346 247.736 128.906C247.318 130.467 248.244 132.07 249.805 132.489Z" fill="black" fill-opacity="0.15"/>
<path d="M79.3026 86.8027C80.8629 87.2208 82.4669 86.2948 82.885 84.7344C83.3031 83.1739 82.377 81.5701 80.8167 81.152C79.2563 80.7339 77.6524 81.6599 77.2343 83.2203C76.8162 84.7807 77.7422 86.3846 79.3026 86.8027Z" fill="black" fill-opacity="0.15"/>
<path d="M176.7 112.9C178.261 113.318 179.864 112.392 180.283 110.832C180.701 109.272 179.775 107.668 178.214 107.25C176.653 106.831 175.05 107.757 174.632 109.318C174.214 110.878 175.139 112.482 176.7 112.9Z" fill="black" fill-opacity="0.15"/>
<path d="M274.098 138.998C275.658 139.416 277.262 138.49 277.68 136.93C278.098 135.369 277.172 133.765 275.612 133.347C274.051 132.929 272.447 133.855 272.029 135.415C271.611 136.976 272.537 138.58 274.098 138.998Z" fill="black" fill-opacity="0.15"/>
<path d="M103.604 93.3141C105.164 93.7322 106.768 92.8062 107.186 91.2459C107.604 89.6854 106.678 88.0816 105.118 87.6635C103.557 87.2454 101.954 88.1713 101.535 89.7318C101.117 91.2921 102.043 92.896 103.604 93.3141Z" fill="black" fill-opacity="0.15"/>
<path d="M201.001 119.412C202.562 119.83 204.165 118.904 204.584 117.343C205.002 115.783 204.076 114.179 202.515 113.761C200.955 113.343 199.351 114.269 198.933 115.829C198.515 117.39 199.441 118.994 201.001 119.412Z" fill="black" fill-opacity="0.15"/>
<path d="M121.933 122.917C123.494 123.335 125.098 122.408 125.516 120.848C125.934 119.288 125.008 117.684 123.447 117.266C121.887 116.848 120.283 117.774 119.865 119.334C119.447 120.894 120.372 122.499 121.933 122.917Z" fill="black" fill-opacity="0.15"/>
<path d="M219.331 149.014C220.892 149.433 222.495 148.506 222.913 146.946C223.331 145.385 222.406 143.782 220.845 143.364C219.284 142.945 217.681 143.871 217.262 145.432C216.844 146.992 217.77 148.596 219.331 149.014Z" fill="black" fill-opacity="0.15"/>
<path d="M48.8368 103.331C50.3971 103.749 52.0011 102.822 52.4191 101.262C52.8373 99.7016 51.9112 98.0981 50.3508 97.68C48.7905 97.2619 47.1867 98.1875 46.7685 99.7483C46.3505 101.308 47.2764 102.913 48.8368 103.331Z" fill="black" fill-opacity="0.15"/>
<path d="M146.234 129.428C147.794 129.846 149.399 128.92 149.817 127.36C150.235 125.799 149.308 124.196 147.748 123.778C146.188 123.359 144.584 124.285 144.166 125.846C143.748 127.406 144.674 129.01 146.234 129.428Z" fill="black" fill-opacity="0.15"/>
<path d="M243.632 155.526C245.192 155.944 246.796 155.017 247.214 153.458C247.632 151.897 246.706 150.293 245.146 149.875C243.585 149.457 241.982 150.383 241.564 151.943C241.146 153.503 242.071 155.108 243.632 155.526Z" fill="black" fill-opacity="0.15"/>
<path d="M73.1298 109.84C74.6902 110.258 76.2942 109.332 76.7122 107.772C77.1304 106.211 76.2043 104.607 74.6439 104.189C73.0836 103.771 71.4798 104.697 71.0616 106.258C70.6436 107.818 71.5695 109.422 73.1298 109.84Z" fill="black" fill-opacity="0.15"/>
<path d="M170.527 135.938C172.088 136.356 173.692 135.429 174.11 133.869C174.528 132.308 173.602 130.705 172.041 130.287C170.481 129.869 168.877 130.794 168.459 132.355C168.041 133.915 168.967 135.519 170.527 135.938Z" fill="black" fill-opacity="0.15"/>
<path d="M267.925 162.035C269.486 162.453 271.089 161.527 271.507 159.967C271.925 158.406 271 156.803 269.439 156.384C267.878 155.966 266.275 156.892 265.857 158.453C265.439 160.013 266.364 161.617 267.925 162.035Z" fill="black" fill-opacity="0.15"/>
<path d="M97.4309 116.351C98.9912 116.769 100.595 115.843 101.013 114.283C101.431 112.722 100.505 111.119 98.945 110.701C97.3846 110.283 95.7808 111.208 95.3626 112.769C94.9446 114.329 95.8705 115.933 97.4309 116.351Z" fill="black" fill-opacity="0.15"/>
<path d="M194.828 142.449C196.389 142.867 197.993 141.941 198.411 140.381C198.829 138.82 197.903 137.217 196.343 136.798C194.783 136.38 193.178 137.306 192.76 138.867C192.342 140.427 193.268 142.031 194.828 142.449Z" fill="black" fill-opacity="0.15"/>
<path d="M115.758 145.962C117.319 146.38 118.922 145.455 119.341 143.894C119.759 142.334 118.833 140.73 117.272 140.311C115.712 139.893 114.108 140.82 113.69 142.38C113.272 143.941 114.197 145.544 115.758 145.962Z" fill="black" fill-opacity="0.15"/>
<path d="M213.156 172.06C214.716 172.478 216.32 171.552 216.738 169.991C217.156 168.431 216.231 166.827 214.67 166.409C213.109 165.991 211.505 166.917 211.087 168.477C210.669 170.038 211.595 171.642 213.156 172.06Z" fill="black" fill-opacity="0.15"/>
<path d="M42.6618 126.376C44.2222 126.794 45.826 125.869 46.2442 124.308C46.6622 122.748 45.7363 121.143 44.1759 120.725C42.6155 120.307 41.0115 121.234 40.5935 122.794C40.1753 124.354 41.1015 125.958 42.6618 126.376Z" fill="black" fill-opacity="0.15"/>
<path d="M140.059 152.474C141.619 152.892 143.223 151.966 143.642 150.405C144.06 148.845 143.133 147.241 141.573 146.823C140.013 146.405 138.409 147.331 137.991 148.891C137.573 150.452 138.499 152.055 140.059 152.474Z" fill="black" fill-opacity="0.15"/>
<path d="M237.457 178.571C239.017 178.989 240.621 178.064 241.039 176.503C241.457 174.943 240.531 173.339 238.971 172.921C237.41 172.502 235.807 173.429 235.389 174.989C234.97 176.55 235.896 178.153 237.457 178.571Z" fill="black" fill-opacity="0.15"/>
<path d="M66.9548 132.885C68.5152 133.303 70.119 132.378 70.5372 130.817C70.9552 129.257 70.0293 127.653 68.4689 127.235C66.9085 126.817 65.3045 127.743 64.8865 129.303C64.4683 130.864 65.3944 132.467 66.9548 132.885Z" fill="black" fill-opacity="0.15"/>
<path d="M164.352 158.983C165.913 159.401 167.517 158.475 167.935 156.915C168.353 155.355 167.427 153.75 165.866 153.332C164.306 152.914 162.702 153.841 162.284 155.401C161.866 156.961 162.792 158.565 164.352 158.983Z" fill="black" fill-opacity="0.15"/>
<path d="M261.75 185.081C263.311 185.499 264.914 184.573 265.332 183.012C265.75 181.452 264.825 179.848 263.264 179.43C261.703 179.012 260.1 179.938 259.682 181.498C259.263 183.059 260.189 184.662 261.75 185.081Z" fill="black" fill-opacity="0.15"/>
<path d="M91.2559 139.397C92.8163 139.815 94.4201 138.889 94.8383 137.328C95.2563 135.769 94.3304 134.164 92.77 133.746C91.2097 133.328 89.6056 134.254 89.1877 135.814C88.7694 137.375 89.6956 138.979 91.2559 139.397Z" fill="black" fill-opacity="0.15"/>
<path d="M188.653 165.494C190.214 165.913 191.818 164.987 192.236 163.426C192.654 161.866 191.728 160.262 190.168 159.844C188.608 159.426 187.003 160.352 186.585 161.912C186.167 163.473 187.093 165.076 188.653 165.494Z" fill="black" fill-opacity="0.15"/>
<path d="M109.57 169.056C111.131 169.474 112.734 168.548 113.153 166.988C113.571 165.427 112.645 163.823 111.084 163.405C109.524 162.987 107.92 163.913 107.502 165.473C107.084 167.034 108.01 168.638 109.57 169.056Z" fill="black" fill-opacity="0.15"/>
<path d="M206.968 195.153C208.529 195.572 210.132 194.646 210.55 193.085C210.968 191.524 210.043 189.921 208.482 189.503C206.921 189.085 205.318 190.01 204.9 191.571C204.481 193.132 205.407 194.735 206.968 195.153Z" fill="black" fill-opacity="0.15"/>
<path d="M36.4738 149.47C38.0342 149.888 39.638 148.962 40.0562 147.401C40.4744 145.841 39.5483 144.237 37.9879 143.819C36.4276 143.401 34.8238 144.327 34.4056 145.887C33.9873 147.448 34.9135 149.052 36.4738 149.47Z" fill="black" fill-opacity="0.15"/>
<path d="M133.871 175.567C135.431 175.985 137.036 175.06 137.454 173.499C137.872 171.938 136.945 170.335 135.386 169.917C133.825 169.498 132.221 170.424 131.803 171.985C131.385 173.546 132.311 175.149 133.871 175.567Z" fill="black" fill-opacity="0.15"/>
<path d="M231.269 201.665C232.829 202.083 234.433 201.157 234.851 199.597C235.269 198.036 234.343 196.432 232.783 196.014C231.222 195.596 229.619 196.522 229.201 198.082C228.782 199.643 229.708 201.247 231.269 201.665Z" fill="black" fill-opacity="0.15"/>
<path d="M60.7669 155.979C62.3273 156.397 63.9311 155.471 64.3493 153.911C64.7675 152.35 63.8414 150.746 62.281 150.328C60.7207 149.91 59.1169 150.836 58.6986 152.397C58.2804 153.957 59.2066 155.561 60.7669 155.979Z" fill="black" fill-opacity="0.15"/>
<path d="M158.164 182.077C159.725 182.495 161.329 181.569 161.747 180.008C162.165 178.447 161.239 176.844 159.678 176.426C158.118 176.008 156.514 176.933 156.096 178.494C155.678 180.055 156.604 181.658 158.164 182.077Z" fill="black" fill-opacity="0.15"/>
<path d="M255.562 208.174C257.123 208.592 258.726 207.667 259.144 206.106C259.563 204.545 258.637 202.942 257.076 202.523C255.515 202.105 253.912 203.031 253.494 204.592C253.075 206.153 254.001 207.756 255.562 208.174Z" fill="black" fill-opacity="0.15"/>
<path d="M85.068 162.49C86.6283 162.909 88.2321 161.983 88.6503 160.422C89.0685 158.861 88.1424 157.258 86.582 156.84C85.0217 156.422 83.4179 157.347 82.9997 158.908C82.5815 160.469 83.5076 162.072 85.068 162.49Z" fill="black" fill-opacity="0.15"/>
<path d="M182.466 188.588C184.026 189.006 185.63 188.081 186.048 186.52C186.466 184.959 185.54 183.356 183.98 182.937C182.42 182.519 180.815 183.445 180.397 185.006C179.979 186.566 180.906 188.17 182.466 188.588Z" fill="black" fill-opacity="0.15"/>
<path d="M103.395 192.101C104.956 192.519 106.56 191.594 106.978 190.033C107.396 188.472 106.47 186.869 104.909 186.451C103.349 186.032 101.745 186.958 101.327 188.519C100.909 190.08 101.835 191.683 103.395 192.101Z" fill="black" fill-opacity="0.15"/>
<path d="M200.793 218.199C202.354 218.617 203.957 217.691 204.375 216.13C204.793 214.57 203.868 212.966 202.307 212.548C200.746 212.13 199.143 213.056 198.725 214.616C198.306 216.177 199.232 217.781 200.793 218.199Z" fill="black" fill-opacity="0.15"/>
<path d="M30.2989 172.515C31.8593 172.933 33.4631 172.008 33.8813 170.447C34.2995 168.886 33.3734 167.283 31.813 166.864C30.2526 166.446 28.6488 167.372 28.2306 168.933C27.8124 170.493 28.7385 172.097 30.2989 172.515Z" fill="black" fill-opacity="0.15"/>
<path d="M127.696 198.613C129.256 199.031 130.861 198.105 131.279 196.544C131.697 194.984 130.77 193.38 129.21 192.962C127.65 192.544 126.046 193.47 125.628 195.03C125.21 196.591 126.136 198.194 127.696 198.613Z" fill="black" fill-opacity="0.15"/>
<path d="M225.094 224.71C226.654 225.128 228.258 224.203 228.676 222.642C229.095 221.081 228.168 219.478 226.608 219.06C225.047 218.641 223.444 219.567 223.026 221.128C222.607 222.689 223.533 224.292 225.094 224.71Z" fill="black" fill-opacity="0.15"/>
<path d="M54.5919 179.024C56.1523 179.442 57.7561 178.517 58.1743 176.956C58.5925 175.395 57.6663 173.792 56.106 173.374C54.5456 172.956 52.9418 173.881 52.5236 175.442C52.1054 177.003 53.0315 178.606 54.5919 179.024Z" fill="black" fill-opacity="0.15"/>
<path d="M151.989 205.122C153.55 205.54 155.154 204.614 155.572 203.054C155.99 201.493 155.064 199.89 153.504 199.471C151.943 199.053 150.339 199.979 149.921 201.54C149.503 203.1 150.429 204.704 151.989 205.122Z" fill="black" fill-opacity="0.15"/>
<path d="M249.387 231.22C250.948 231.638 252.551 230.712 252.969 229.151C253.388 227.59 252.462 225.987 250.901 225.569C249.34 225.151 247.737 226.076 247.319 227.637C246.9 229.198 247.826 230.801 249.387 231.22Z" fill="black" fill-opacity="0.15"/>
<path d="M78.893 185.536C80.4534 185.954 82.0572 185.028 82.4754 183.468C82.8936 181.907 81.9675 180.303 80.4071 179.885C78.8467 179.467 77.243 180.393 76.8247 181.953C76.4065 183.514 77.3327 185.118 78.893 185.536Z" fill="black" fill-opacity="0.15"/>
<path d="M176.291 211.633C177.851 212.052 179.455 211.126 179.873 209.565C180.291 208.004 179.365 206.401 177.805 205.983C176.245 205.565 174.64 206.49 174.222 208.051C173.804 209.612 174.731 211.215 176.291 211.633Z" fill="black" fill-opacity="0.15"/>
<path d="M145.965 33.2306C147.525 33.6488 149.129 32.7226 149.547 31.1623C149.965 29.6019 149.039 27.9981 147.479 27.5799C145.918 27.1617 144.314 28.0878 143.896 29.6482C143.478 31.2086 144.404 32.8123 145.965 33.2306Z" fill="black" fill-opacity="0.15"/>
<path d="M97.2203 215.147C98.7811 215.565 100.384 214.639 100.803 213.078C101.221 211.518 100.295 209.914 98.7344 209.496C97.1736 209.078 95.5702 210.003 95.152 211.564C94.7338 213.125 95.6595 214.728 97.2203 215.147Z" fill="black" fill-opacity="0.15"/>
<path d="M243.362 59.3281C244.923 59.7464 246.526 58.8202 246.944 57.2599C247.363 55.6995 246.437 54.0957 244.876 53.6775C243.315 53.2593 241.712 54.1854 241.294 55.7458C240.876 57.3061 241.801 58.9099 243.362 59.3281Z" fill="black" fill-opacity="0.15"/>
<path d="M194.618 241.244C196.179 241.662 197.782 240.737 198.2 239.176C198.618 237.615 197.693 236.012 196.132 235.594C194.571 235.175 192.968 236.101 192.55 237.662C192.131 239.223 193.057 240.826 194.618 241.244Z" fill="black" fill-opacity="0.15"/>
<path d="M24.1239 195.56C25.6842 195.979 27.288 195.053 27.7062 193.492C28.1244 191.931 27.1983 190.328 25.638 189.91C24.0776 189.492 22.4738 190.417 22.0556 191.978C21.6374 193.539 22.5635 195.142 24.1239 195.56Z" fill="black" fill-opacity="0.15"/>
<path d="M170.266 39.742C171.826 40.16 173.43 39.2341 173.848 37.6737C174.266 36.1133 173.34 34.5093 171.78 34.0914C170.219 33.6731 168.615 34.5993 168.197 36.1596C167.779 37.72 168.705 39.3238 170.266 39.742Z" fill="black" fill-opacity="0.15"/>
<path d="M121.521 221.658C123.081 222.076 124.686 221.151 125.104 219.59C125.522 218.029 124.596 216.425 123.036 216.007C121.475 215.589 119.871 216.515 119.453 218.076C119.035 219.636 119.961 221.24 121.521 221.658Z" fill="black" fill-opacity="0.15"/>
<path d="M267.663 65.8396C269.223 66.2576 270.827 65.3317 271.246 63.7713C271.664 62.2109 270.737 60.6069 269.177 60.1889C267.616 59.7707 266.013 60.6968 265.595 62.2572C265.177 63.8176 266.102 65.4214 267.663 65.8396Z" fill="black" fill-opacity="0.15"/>
<path d="M218.919 247.756C220.479 248.174 222.083 247.248 222.501 245.687C222.919 244.127 221.993 242.523 220.433 242.105C218.872 241.687 217.269 242.612 216.851 244.173C216.432 245.734 217.358 247.337 218.919 247.756Z" fill="black" fill-opacity="0.15"/>
<path d="M48.417 202.07C49.9773 202.488 51.5811 201.562 51.9993 200.001C52.4175 198.441 51.4914 196.837 49.931 196.419C48.3707 196.001 46.7669 196.927 46.3487 198.487C45.9305 200.048 46.8566 201.652 48.417 202.07Z" fill="black" fill-opacity="0.15"/>
<path d="M194.559 46.2513C196.119 46.6695 197.723 45.7434 198.141 44.183C198.559 42.6226 197.634 41.0189 196.073 40.6007C194.512 40.1825 192.908 41.1086 192.49 42.6689C192.072 44.2293 192.998 45.8331 194.559 46.2513Z" fill="black" fill-opacity="0.15"/>
<path d="M145.814 228.167C147.375 228.586 148.979 227.66 149.397 226.099C149.815 224.538 148.889 222.935 147.329 222.517C145.768 222.098 144.164 223.024 143.746 224.585C143.328 226.146 144.254 227.749 145.814 228.167Z" fill="black" fill-opacity="0.15"/>
<path d="M243.212 254.265C244.773 254.683 246.376 253.757 246.794 252.197C247.213 250.636 246.287 249.032 244.726 248.614C243.165 248.196 241.562 249.122 241.144 250.683C240.726 252.243 241.651 253.847 243.212 254.265Z" fill="black" fill-opacity="0.15"/>
<path d="M72.718 208.581C74.2784 208.999 75.8822 208.074 76.3004 206.513C76.7186 204.952 75.7924 203.349 74.2321 202.931C72.6717 202.512 71.0679 203.438 70.6497 204.999C70.2315 206.56 71.1576 208.163 72.718 208.581Z" fill="black" fill-opacity="0.15"/>
<path d="M218.86 52.7628C220.42 53.181 222.024 52.2549 222.442 50.6945C222.86 49.1341 221.935 47.5303 220.374 47.1121C218.814 46.6941 217.21 47.62 216.791 49.1804C216.373 50.7408 217.3 52.3448 218.86 52.7628Z" fill="black" fill-opacity="0.15"/>
<path d="M170.116 234.679C171.676 235.097 173.28 234.171 173.698 232.611C174.116 231.05 173.19 229.446 171.63 229.028C170.07 228.61 168.465 229.536 168.047 231.096C167.629 232.657 168.556 234.261 170.116 234.679Z" fill="black" fill-opacity="0.15"/>
<path d="M139.792 56.2679C141.352 56.6861 142.956 55.76 143.374 54.1996C143.792 52.6392 142.867 51.0354 141.306 50.6172C139.745 50.199 138.142 51.1251 137.723 52.6855C137.305 54.2459 138.231 55.8497 139.792 56.2679Z" fill="black" fill-opacity="0.15"/>
<path d="M91.0475 238.184C92.6082 238.602 94.2116 237.676 94.6298 236.116C95.048 234.555 94.1223 232.951 92.5615 232.533C91.0008 232.115 89.3974 233.041 88.9792 234.602C88.5609 236.162 89.4867 237.766 91.0475 238.184Z" fill="black" fill-opacity="0.15"/>
<path d="M237.189 82.3655C238.75 82.7837 240.354 81.8576 240.772 80.2972C241.19 78.7368 240.264 77.133 238.703 76.7148C237.143 76.2966 235.539 77.2227 235.121 78.7831C234.703 80.3435 235.629 81.9473 237.189 82.3655Z" fill="black" fill-opacity="0.15"/>
<path d="M188.445 264.282C190.006 264.7 191.609 263.774 192.027 262.213C192.446 260.652 191.52 259.049 189.959 258.631C188.398 258.213 186.795 259.138 186.377 260.699C185.959 262.26 186.884 263.863 188.445 264.282Z" fill="black" fill-opacity="0.15"/>
<path d="M66.6953 36.6818C68.2556 37.0999 69.8596 36.1738 70.2777 34.6135C70.6958 33.0531 69.7697 31.4492 68.2094 31.0311C66.649 30.613 65.0451 31.539 64.627 33.0994C64.2089 34.6598 65.1349 36.2637 66.6953 36.6818Z" fill="black" fill-opacity="0.15"/>
<path d="M164.093 62.7794C165.653 63.1973 167.257 62.2714 167.675 60.7111C168.093 59.1507 167.167 57.5467 165.607 57.1287C164.046 56.7105 162.443 57.6366 162.025 59.197C161.606 60.7573 162.532 62.3611 164.093 62.7794Z" fill="black" fill-opacity="0.15"/>
<path d="M115.349 244.695C116.909 245.113 118.513 244.188 118.931 242.627C119.349 241.066 118.423 239.463 116.863 239.045C115.302 238.626 113.699 239.552 113.28 241.113C112.862 242.674 113.788 244.277 115.349 244.695Z" fill="black" fill-opacity="0.15"/>
<path d="M261.49 88.8769C263.05 89.2949 264.655 88.369 265.073 86.8086C265.491 85.2483 264.564 83.6443 263.004 83.2263C261.444 82.8081 259.84 83.7342 259.422 85.2946C259.004 86.8549 259.93 88.4587 261.49 88.8769Z" fill="black" fill-opacity="0.15"/>
<path d="M212.746 270.793C214.306 271.211 215.91 270.285 216.328 268.725C216.747 267.164 215.82 265.56 214.26 265.142C212.699 264.724 211.096 265.65 210.678 267.211C210.26 268.771 211.185 270.375 212.746 270.793Z" fill="black" fill-opacity="0.15"/>
<path d="M90.9884 43.1911C92.5487 43.6092 94.1526 42.6831 94.5707 41.1228C94.9888 39.5624 94.0628 37.9585 92.5025 37.5404C90.9421 37.1223 89.3382 38.0483 88.9201 39.6087C88.502 41.1691 89.428 42.773 90.9884 43.1911Z" fill="black" fill-opacity="0.15"/>
<path d="M42.2441 225.107C43.8045 225.525 45.4083 224.6 45.8265 223.039C46.2447 221.478 45.3186 219.875 43.7582 219.456C42.1978 219.038 40.594 219.964 40.1758 221.525C39.7576 223.085 40.6837 224.689 42.2441 225.107Z" fill="black" fill-opacity="0.15"/>
<path d="M188.386 69.2886C189.947 69.7069 191.55 68.7807 191.968 67.2204C192.386 65.66 191.461 64.0562 189.9 63.638C188.339 63.2198 186.736 64.1459 186.318 65.7063C185.899 67.2666 186.825 68.8704 188.386 69.2886Z" fill="black" fill-opacity="0.15"/>
<path d="M139.642 251.205C141.202 251.623 142.806 250.697 143.224 249.136C143.642 247.576 142.716 245.972 141.156 245.554C139.595 245.136 137.991 246.062 137.573 247.622C137.155 249.183 138.081 250.786 139.642 251.205Z" fill="black" fill-opacity="0.15"/>
<path d="M237.039 277.302C238.6 277.72 240.203 276.795 240.622 275.234C241.04 273.673 240.114 272.07 238.553 271.652C236.992 271.233 235.389 272.159 234.971 273.72C234.553 275.281 235.478 276.884 237.039 277.302Z" fill="black" fill-opacity="0.15"/>
<path d="M115.289 49.7025C116.85 50.1206 118.454 49.1946 118.872 47.6342C119.29 46.0739 118.364 44.4699 116.803 44.0518C115.243 43.6337 113.639 44.5598 113.221 46.1201C112.803 47.6805 113.729 49.2844 115.289 49.7025Z" fill="black" fill-opacity="0.15"/>
<path d="M66.5451 231.619C68.1055 232.037 69.7093 231.111 70.1275 229.55C70.5457 227.99 69.6196 226.386 68.0592 225.968C66.4988 225.55 64.895 226.475 64.4768 228.036C64.0586 229.597 64.9848 231.2 66.5451 231.619Z" fill="black" fill-opacity="0.15"/>
<path d="M212.687 75.8001C214.248 76.2183 215.851 75.2922 216.269 73.7318C216.687 72.1714 215.762 70.5677 214.201 70.1494C212.641 69.7315 211.037 70.6574 210.619 72.2177C210.201 73.7781 211.127 75.3821 212.687 75.8001Z" fill="black" fill-opacity="0.15"/>
<path d="M163.943 257.716C165.503 258.134 167.107 257.209 167.525 255.648C167.943 254.087 167.018 252.484 165.457 252.065C163.897 251.647 162.293 252.573 161.874 254.134C161.456 255.695 162.383 257.298 163.943 257.716Z" fill="black" fill-opacity="0.15"/>
</g>
</svg>
