<svg width="243" height="221" viewBox="0 0 243 221" fill="none" xmlns="http://www.w3.org/2000/svg">
<g clip-path="url(#clip0_145_956)">
<path d="M68.6274 1.698C78.2476 7.25221 69.4241 22.535 79.0444 28.0893C88.6645 33.6435 97.4881 18.3607 107.108 23.915C116.729 29.4692 107.905 44.752 117.525 50.3062C127.145 55.8605 135.969 40.5777 145.589 46.132C155.21 51.6862 146.386 66.969 156.006 72.523C165.626 78.0774 174.45 62.7946 184.07 68.349C193.69 73.9029 184.866 89.1857 194.487 94.7401C204.108 100.295 212.931 85.0117 222.572 90.5779C232.212 96.1436 223.368 111.415 233.009 116.981" stroke="black" stroke-opacity="0.1" stroke-width="4" stroke-miterlimit="10"/>
<path d="M33.3333 62.8293C42.9534 68.3836 34.1299 83.6664 43.7502 89.2206C53.3704 94.7748 62.1939 79.492 71.8142 85.0463C81.4344 90.6006 72.6108 105.883 82.231 111.438C91.8513 116.992 100.675 101.709 110.295 107.263C119.915 112.818 111.092 128.1 120.712 133.654C130.332 139.209 139.156 123.926 148.776 129.48C158.396 135.034 149.572 150.317 159.193 155.871C168.813 161.426 177.637 146.143 187.278 151.709C196.918 157.275 188.074 172.546 197.715 178.112" stroke="black" stroke-opacity="0.1" stroke-width="4" stroke-miterlimit="10"/>
<path d="M56.8627 22.0752C66.4886 27.6327 57.6651 42.9155 67.291 48.473C76.9169 54.0306 85.7405 38.7478 95.3664 44.3053C104.992 49.8629 96.1688 65.1456 105.795 70.7032C115.421 76.2607 124.244 60.9779 133.87 66.5356C143.496 72.0928 134.672 87.3756 144.299 92.9335C153.924 98.4908 162.748 83.208 172.374 88.7659C182 94.3232 173.176 109.606 182.802 115.163C192.429 120.721 201.231 105.426 210.795 110.948C220.36 116.47 211.598 131.789 221.244 137.358" stroke="black" stroke-opacity="0.1" stroke-width="4" stroke-miterlimit="10"/>
<path d="M9.80383 103.583C19.4298 109.141 10.6063 124.424 20.2321 129.981C29.8581 135.539 38.6816 120.256 48.3076 125.814C57.9335 131.371 49.1099 146.654 58.7359 152.211C68.3618 157.769 77.1854 142.486 86.8115 148.044C96.4369 153.601 87.6134 168.884 97.2399 174.442C106.865 179.999 115.689 164.716 125.315 170.274C134.941 175.832 126.118 191.114 135.743 196.672C145.37 202.23 154.172 186.934 163.736 192.457C173.301 197.979 164.539 213.297 174.185 218.866" stroke="black" stroke-opacity="0.1" stroke-width="4" stroke-miterlimit="10"/>
<path d="M45.098 42.4521C54.7182 48.0064 45.8947 63.2892 55.5149 68.8434C65.1351 74.3976 73.9587 59.1148 83.5789 64.6691C93.1992 70.2234 84.3756 85.5061 93.9958 91.0603C103.616 96.6146 112.44 81.3318 122.06 86.8862C131.68 92.4404 122.857 107.723 132.476 113.277C142.097 118.832 150.92 103.549 160.541 109.103C170.161 114.657 161.337 129.94 170.958 135.494C180.578 141.049 189.402 125.766 199.043 131.332C208.683 136.898 199.839 152.169 209.48 157.735" stroke="black" stroke-opacity="0.1" stroke-width="4" stroke-miterlimit="10"/>
<path d="M21.5686 83.2063C31.1888 88.7605 22.3653 104.043 31.9855 109.598C41.6057 115.152 50.4292 99.869 60.0495 105.423C69.6698 110.978 60.8462 126.26 70.4663 131.814C80.0866 137.369 88.9101 122.086 98.5306 127.64C108.151 133.195 99.3272 148.477 108.947 154.031C118.567 159.586 127.391 144.303 137.011 149.857C146.631 155.411 137.808 170.694 147.428 176.248C157.049 181.803 165.872 166.52 175.513 172.086C185.153 177.652 176.309 192.923 185.95 198.489" stroke="black" stroke-opacity="0.1" stroke-width="4" stroke-miterlimit="10"/>
</g>
<defs>
<clipPath id="clip0_145_956">
<rect width="200" height="139.216" fill="white" transform="translate(69.6078) rotate(30)"/>
</clipPath>
</defs>
</svg>
